<?xml version="1.0" standalone="no"?><!DOCTYPE svg PUBLIC "-//W3C//DTD SVG 1.1//EN" "http://www.w3.org/Graphics/SVG/1.1/DTD/svg11.dtd"><svg t="1710406556784" class="icon" viewBox="0 0 1024 1024" version="1.1" xmlns="http://www.w3.org/2000/svg" p-id="2931" xmlns:xlink="http://www.w3.org/1999/xlink" width="200" height="200"><path d="M510.414861 41.213622c-208.354939 0-377.263158 169.284425-377.263158 378.104339C133.151703 628.146328 510.414861 1001.80805 510.414861 1001.80805S887.678019 628.146328 887.678019 419.317961c0-208.819913-168.908219-378.104338-377.263158-378.104339z m0 621.374613C375.593478 662.588235 266.303406 553.298163 266.303406 418.47678s109.290072-244.111455 244.111455-244.111455S754.526316 283.655397 754.526316 418.47678s-109.290072 244.111455-244.111455 244.111455z" fill="#ffffff" p-id="2932"></path><path d="M697.211905 389.623018s-4.793461 84.354774-47.964202 134.200008c-43.166514 49.841007-105.515327 62.302316-105.515327 62.302316v-19.169619l-57.559579 38.343464 62.348813 28.756541v-23.96308s91.134943-17.25477 129.503769-76.686927c38.368826-59.432157 47.964202-138.99347 47.964202-138.993469l-28.777676-4.789234z m-213.774002-148.305635v19.169618l57.555352-38.343463-62.348813-28.756541v23.963079s-91.130716 17.25477-129.503769 76.686927c-38.368826 59.432157-47.964202 138.989243-47.964202 138.989243l28.777676 4.793461s4.797688-84.354774 47.964202-134.200008c43.166514-49.841007 105.519554-62.302316 105.519554-62.302316z m33.186477 194.418394c2.624991 0 5.161214-0.359298 7.595987-0.976446 3.888875 25.683484 11.281965 61.05534 23.692549 73.656141a51.582547 51.582547 0 0 0 73.715319-0.054952c20.36587-20.674444 20.391232-54.173721 0.050725-74.82703-12.647298-12.841742-48.615166-20.395459-74.015439-24.280107a32.632735 32.632735 0 0 0 0.511472-5.605053 32.23962 32.23962 0 0 0-6.852029-19.926258c20.053069-16.257189 47.207562-40.875459 51.815034-58.324673 7.443814-28.202799-9.075451-57.204508-36.902043-64.775133s-56.418279 9.159992-63.86632 37.367018c-4.484888 16.988466 6.196838 50.720231 15.403327 74.877754a31.732376 31.732376 0 0 0-19.101986 15.92748c-23.438927-8.978229-54.224446-18.548244-70.122336-14.223983-27.784322 7.562171-44.265544 36.585015-36.809049 64.830084 7.456495 28.249296 36.022819 45.017957 63.811369 37.455786 15.644268-4.2524 37.151439-27.475748 52.964788-46.962395a30.996871 30.996871 0 0 0 18.108632 5.841767z" fill="#ffffff" p-id="2933"></path></svg>