<?xml version="1.0" standalone="no"?><!DOCTYPE svg PUBLIC "-//W3C//DTD SVG 1.1//EN" "http://www.w3.org/Graphics/SVG/1.1/DTD/svg11.dtd"><svg t="1710406553065" class="icon" viewBox="0 0 1024 1024" version="1.1" xmlns="http://www.w3.org/2000/svg" p-id="2723" xmlns:xlink="http://www.w3.org/1999/xlink" width="200" height="200"><path d="M510.414861 41.213622c-208.354939 0-377.263158 169.284425-377.263158 378.104339C133.151703 628.146328 510.414861 1001.80805 510.414861 1001.80805S887.678019 628.146328 887.678019 419.317961c0-208.819913-168.908219-378.104338-377.263158-378.104339z m0 621.374613C375.593478 662.588235 266.303406 553.298163 266.303406 418.47678s109.290072-244.111455 244.111455-244.111455S754.526316 283.655397 754.526316 418.47678s-109.290072 244.111455-244.111455 244.111455z" fill="#ffffff" p-id="2724"></path><path d="M523.095975 434.767785V362.996904a4.755418 4.755418 0 0 0-9.510836 0v71.491897c-26.528892 1.644318-47.55418 23.616462-47.554179 50.563831 0 0.008454 50.724458 0 50.724458 0s50.724458 1.069441 50.724458 0c0-25.865247-19.368289-47.161065-44.383901-50.284847z" fill="#ffffff" p-id="2725"></path><path d="M513.585139 316.07678c70.561948 0 127.766456 57.200281 127.766456 127.762229H710.142415c0-108.554568-87.998481-196.557276-196.557276-196.557275C405.030572 247.281734 317.027864 335.284442 317.027864 443.839009h68.795046c0-70.557721 57.204508-127.762229 127.762229-127.762229z" fill="#ffffff" p-id="2726"></path></svg>