<?xml version="1.0" standalone="no"?><!DOCTYPE svg PUBLIC "-//W3C//DTD SVG 1.1//EN" "http://www.w3.org/Graphics/SVG/1.1/DTD/svg11.dtd"><svg t="1710406531521" class="icon" viewBox="0 0 1024 1024" version="1.1" xmlns="http://www.w3.org/2000/svg" p-id="2102" xmlns:xlink="http://www.w3.org/1999/xlink" width="200" height="200"><path d="M510.414861 41.213622c-208.354939 0-377.263158 169.284425-377.263158 378.104339C133.151703 628.146328 510.414861 1001.80805 510.414861 1001.80805S887.678019 628.146328 887.678019 419.317961c0-208.819913-168.908219-378.104338-377.263158-378.104339z m0 621.374613C375.593478 662.588235 266.303406 553.298163 266.303406 418.47678s109.290072-244.111455 244.111455-244.111455S754.526316 283.655397 754.526316 418.47678s-109.290072 244.111455-244.111455 244.111455z" fill="#ffffff" p-id="2103"></path><path d="M379.609164 415.636211v-1.783811a8.804921 8.804921 0 0 0-8.80492-8.80492h-35.456397a8.800693 8.800693 0 0 0-8.80492 8.80492v1.783811c0 4.865321 3.943827 8.804921 8.80492 8.80492h35.456397a8.800693 8.800693 0 0 0 8.80492-8.80492z m126.642064-128.725994h1.990935a8.87678 8.87678 0 0 0 8.87678-8.872553v-34.564492c0-4.903364-3.973416-8.872553-8.87678-8.872553h-1.990935c-4.903364 0-8.872553 3.969189-8.872553 8.872553v34.564492c0 4.903364 3.969189 8.872553 8.872553 8.872553z m89.380722 67.810146s-29.462456-48.433404-94.279859-44.561436c-62.856058 5.165441-84.46045 54.245581-84.46045 54.245581s-24.880347 36.492021-5.892491 83.310695c23.569965 49.726877 46.484739 53.603071 53.032421 56.181565 10.149119 2.261465 12.110464-10.009626 9.819409-13.560339-6.547682-6.133432-35.680429-15.175067-45.178584-58.121775-5.562782-34.226328 5.892491-56.185792 5.892492-56.185791s15.386419-41.010724 70.709894-46.49742c84.456223 2.58272 88.387368 78.787765 86.421796 92.99484 0 28.418378-41.247439 61.997969-41.247439 61.997969l-7.853837 31.001098-84.46045 23.244483s-6.873164 13.564566 3.931146 15.500549c9.493928 0.64251 98.206778-23.24871 98.206778-23.24871s5.2373-24.216702 9.81941-34.873065c8.187773-13.560338 18.662374-14.853812 31.432256-36.809049 27.50111-54.892318-5.892491-104.619195-5.892492-104.619195z m83.513594 50.32289h-35.460623c-4.861094 0-8.804921 3.9396-8.804921 8.80492v1.78381c0 4.865321 3.943827 8.804921 8.804921 8.804921h35.460623c4.861094 0 8.804921-3.9396 8.80492-8.804921v-1.78381a8.804921 8.804921 0 0 0-8.80492-8.80492z m-69.712314-78.327018l23.612235-23.29098c3.833924-3.783199 3.833924-9.916632 0-13.699831s-10.056124-3.783199-13.890047 0l-23.612235 23.286754a9.595377 9.595377 0 0 0 0 13.69983 9.912405 9.912405 0 0 0 13.890047 0.004227z m-208.304215 178.059757l-23.612235 23.29098a9.595377 9.595377 0 0 0 0 13.699831 9.916632 9.916632 0 0 0 13.890048 0l23.608008-23.290981a9.595377 9.595377 0 0 0 0-13.69983 9.912405 9.912405 0 0 0-13.885821 0z m148.199959 39.734159L464.044252 568.536636c-5.241527 1.386469-8.3484 6.699856-6.945024 11.865296 1.403377 5.169668 6.788623 8.238497 12.030151 6.852029l85.288949-24.026485c5.2373-1.382241 8.3484-6.695628 6.945024-11.865296s-6.797077-8.23427-12.034378-6.852029z m-20.48 44.633296c-3.601437 2.257238-13.750555 9.684144-21.604392 9.684144-7.858064 0-23.569965-9.684144-23.569965-9.684144s-12.110464 4.197449-7.853837 13.564565c2.946246 3.550712 8.838737 15.496322 29.462456 15.496322s33.389375-17.436533 33.389375-17.436532 4.2524-11.94561-9.823637-11.624355zM404.100623 324.721073a9.899723 9.899723 0 0 0 13.868913 0 9.578469 9.578469 0 0 0 0-13.678695l-23.578419-23.257164a9.899723 9.899723 0 0 0-13.868913 0 9.570014 9.570014 0 0 0 0 13.678695l23.578419 23.257164z m206.351323 178.114708c-3.829697-3.778972-10.039216-3.778972-13.868912 0s-3.829697 9.90395 0 13.678696l23.578419 23.257164a9.899723 9.899723 0 0 0 13.868912 0 9.586923 9.586923 0 0 0 0-13.678696l-23.578419-23.257164z" fill="#ffffff" p-id="2104"></path></svg>