<?xml version="1.0" standalone="no"?><!DOCTYPE svg PUBLIC "-//W3C//DTD SVG 1.1//EN" "http://www.w3.org/Graphics/SVG/1.1/DTD/svg11.dtd"><svg t="1710406508673" class="icon" viewBox="0 0 1024 1024" version="1.1" xmlns="http://www.w3.org/2000/svg" p-id="1493" xmlns:xlink="http://www.w3.org/1999/xlink" width="200" height="200"><path d="M510.414861 41.213622c-208.354939 0-377.263158 169.284425-377.263158 378.104339C133.151703 628.146328 510.414861 1001.80805 510.414861 1001.80805S887.678019 628.146328 887.678019 419.317961c0-208.819913-168.908219-378.104338-377.263158-378.104339z m0 621.374613C375.593478 662.588235 266.303406 553.298163 266.303406 418.47678s109.290072-244.111455 244.111455-244.111455S754.526316 283.655397 754.526316 418.47678s-109.290072 244.111455-244.111455 244.111455z" fill="#ffffff" p-id="1494"></path><path d="M429.674204 477.257973h-45.102497l3.757837-51.700904-30.066923-11.079067v162.487348l26.313313-11.079067v-55.391109l67.653746-3.690204 33.82476-40.621837-33.82476-22.158134-22.555476 33.232974z m-45.102497-118.175306l-18.793412 18.463702 244.310126 155.098485 26.309086 3.694432 26.313312-44.312041-41.34466 22.158134-236.794452-155.102712z m255.583637 132.944578l82.689321-66.474403-281.892723-184.645482h-37.586823l-45.102498 66.474403v22.158134l259.341474 162.487348h22.551249z" fill="#ffffff" p-id="1495"></path></svg>