<?xml version="1.0" standalone="no"?><!DOCTYPE svg PUBLIC "-//W3C//DTD SVG 1.1//EN" "http://www.w3.org/Graphics/SVG/1.1/DTD/svg11.dtd"><svg t="1710406560453" class="icon" viewBox="0 0 1024 1024" version="1.1" xmlns="http://www.w3.org/2000/svg" p-id="3126" xmlns:xlink="http://www.w3.org/1999/xlink" width="200" height="200"><path d="M510.414861 41.213622c-208.354939 0-377.263158 169.284425-377.263158 378.104339C133.151703 628.146328 510.414861 1001.80805 510.414861 1001.80805S887.678019 628.146328 887.678019 419.317961c0-208.819913-168.908219-378.104338-377.263158-378.104339z m0 621.374613C375.593478 662.588235 266.303406 553.298163 266.303406 418.47678s109.290072-244.111455 244.111455-244.111455S754.526316 283.655397 754.526316 418.47678s-109.290072 244.111455-244.111455 244.111455z" fill="#ffffff" p-id="3127"></path><path d="M635.873354 439.764144c-20.505362-11.996334-68.955674-9.307938-102.662076-5.558555a42.866394 42.866394 0 0 0-1.259658-7.338138 42.363377 42.363377 0 0 0-15.475187-22.952817c20.031934-27.50111 46.260706-68.055315 46.193074-91.790135-0.105676-38.381507-31.047595-69.585503-69.103621-69.691178-38.056025-0.109903-68.816182 30.91233-68.706278 69.298064 0.067633 23.100764 25.133969 62.276954 45.089816 89.820334a41.83077 41.83077 0 0 0-18.932904 26.812103c-32.937082-3.398539-75.410361-5.030175-94.203773 5.892492-32.852541 19.097759-43.986559 61.609082-24.863438 94.947731 19.123121 33.342877 61.258237 44.886918 94.115005 25.797614 18.497519-10.753585 38.017981-47.613358 51.540276-77.777502a40.993816 40.993816 0 0 0 25.045202 1.217387 40.930411 40.930411 0 0 0 9.371343-3.846605c13.695604 31.305445 35.177412 73.744908 55.298114 85.51721 32.966671 19.287975 75.034155 7.980648 93.967059-25.256554 18.928677-33.232974 7.553717-75.803476-25.412954-95.091451z m4.522931-144.928231h-66.575852v19.021672h66.575852v-19.021672z m34.873065 50.724459h-101.448917v19.021671h101.448917v-19.021671z m-101.448917 50.724458v19.021672H697.4613v-19.021672h-123.640867z" fill="#ffffff" p-id="3128"></path></svg>