<svg t="1706769484231" class="icon" viewBox="0 0 1097 1024" version="1.1" xmlns="http://www.w3.org/2000/svg" p-id="42078" width="200" height="200"><path d="M130.56 915.419429V103.606857c0-39.753143 32.256-71.972571 72.045714-71.972571h403.968c39.753143 0 72.009143 32.182857 72.009143 71.972571v123.977143h215.990857c39.753143 0 72.009143 32.256 72.009143 72.045714V915.382857h58.002286a35.986286 35.986286 0 0 1 0 72.009143H72.557714a35.986286 35.986286 0 0 1 0-72.009143H130.56z m72.045714 0h403.968V103.606857H202.569143v811.812572z m475.977143 0h215.990857V299.629714h-215.990857V915.382857zM292.022857 292.571429h233.325714a35.986286 35.986286 0 0 1 0 72.009142h-233.325714a35.986286 35.986286 0 0 1 0-72.009142z m0 188.379428h233.325714a35.986286 35.986286 0 0 1 0 72.009143h-233.325714a35.986286 35.986286 0 0 1 0-72.009143z m0 197.449143h233.325714a35.986286 35.986286 0 0 1 0 71.972571h-233.325714a35.986286 35.986286 0 0 1 0-71.972571zM786.541714 402.285714c19.858286 0 35.986286 16.091429 35.986286 35.986286v72.045714a35.986286 35.986286 0 0 1-72.009143 0v-72.045714c0-19.858286 16.128-35.986286 36.022857-35.986286z m0 214.491429c19.858286 0 35.986286 16.091429 35.986286 35.986286v72.009142a35.986286 35.986286 0 0 1-72.009143 0v-72.045714c0-19.858286 16.128-35.949714 36.022857-35.949714z" fill="#AEAEAE" p-id="42079"></path></svg>
