<svg t="1706584117803" class="icon" viewBox="0 0 1024 1024" version="1.1" xmlns="http://www.w3.org/2000/svg" p-id="18347" width="200" height="200"><path d="M897.598824 392.74651V230.230713L673.387215 7.52388H216.68773C167.782513 7.52388 127.905952 47.400441 127.905952 96.305658v295.688464H67.714916v474.004408h60.191036v60.191036c0 48.905217 39.876561 88.781778 88.781778 88.781779h594.38648c48.905217 0 88.781778-39.876561 88.781778-88.781779v-60.191036h57.933872v-474.004408h-60.191036zM686.17781 142.953711l97.810434 97.810433h-97.810434V142.953711z m-469.49008-48.905217h380.708302v236.249816h211.421014v60.191036H216.68773V94.048494z m382.213078 668.120499h-36.114621L541.719324 682.415871h-66.21014l-21.066862 79.753122h-36.114622l75.238795-261.078618h30.095518l75.238795 261.078618z m-404.032329-120.382072c0-47.400441 8.276267-82.762675 24.828802-105.334313 16.552535-23.324026 37.619398-34.609846 63.952976-34.609845 21.819251 0 40.628949 8.276267 54.924321 24.828802 14.295371 16.552535 21.066863 39.876561 20.314474 69.972079h-33.10507c0-21.819251-3.76194-38.371785-10.533431-49.657604-6.771492-11.285819-17.304923-16.552535-31.600294-16.552535-15.800147 0-28.590742 8.276267-38.371785 24.828802-9.781043 16.552535-14.295371 44.390889-14.295371 83.515063 0 36.114622 4.514328 61.695812 14.295371 75.991183 9.781043 14.295371 21.819251 21.819251 36.867009 21.81925 11.285819 0 21.066863-5.266716 30.095518-15.800147 9.028655-10.533431 13.542983-30.847906 13.542983-60.943424H361.146216c-0.752388 38.371785-9.028655 65.457752-24.076414 81.257899-15.047759 15.800147-33.10507 24.076414-54.171933 24.076414-24.076414 0-45.143277-9.781043-61.695812-29.34313-17.304923-19.562087-26.333578-51.162381-26.333578-94.048494z m616.205731 285.155033h-594.38648v-60.191036h594.38648v60.191036z m-3.76194-194.116091c-19.562087 19.562087-45.895665 29.34313-79.000734 29.34313H677.149155V504.099927h51.162381c36.86701 0 64.705364 9.781043 82.010286 30.095518 17.304923 20.314475 26.333578 53.419544 26.333578 99.315209 0.752388 46.648053-9.028655 79.753123-29.34313 99.315209z" p-id="18348"></path><path d="M534.195445 653.825129l-24.076415-91.79133h-3.009552l-24.076414 91.79133zM728.311536 532.690669h-16.552535v200.887582h16.552535c24.076414 0 42.133725-7.52388 54.171932-21.81925 12.038207-14.295371 18.057311-40.628949 18.057311-77.495959s-6.019104-63.200588-18.057311-78.248347c-12.038207-15.800147-30.095518-23.324026-54.171932-23.324026z" p-id="18349"></path></svg>
