<svg t="1707269015841" class="icon" viewBox="0 0 1024 1024" version="1.1" xmlns="http://www.w3.org/2000/svg" p-id="6029" width="200" height="200"><path d="M473 776.5H256.3c-28.9 0-52.5-23.5-52.5-52.5V207c0-28.9 23.6-52.5 52.5-52.5h433.4c28.9 0 52.5 23.5 52.5 52.5v175c0 11-9 20-20 20s-20-9-20-20V207c0-6.9-5.6-12.5-12.5-12.5H256.3c-6.9 0-12.5 5.6-12.5 12.5v517c0 6.9 5.6 12.5 12.5 12.5H473c11 0 20 9 20 20s-8.9 20-20 20z" fill="#bfbfbf" p-id="6030"></path><path d="M598.3 402h-250c-11 0-20-9-20-20v-82.8c0-11 9-20 20-20h250c11 0 20 9 20 20V382c0 11-9 20-20 20z m-230.1-40h210v-42.8h-210V362zM473.3 652.1h-125c-11 0-20-9-20-20V465.8c0-11 9-20 20-20h125c11 0 20 9 20 20s-9 20-20 20h-105v126.3h105c11 0 20 9 20 20s-9 20-20 20zM743.6 631.3H618.7c-11 0-20-9-20-20s9-20 20-20h124.9c11 0 20 9 20 20 0 11.1-8.9 20-20 20zM743.6 714.5H618.7c-11 0-20-9-20-20s9-20 20-20h124.9c11 0 20 9 20 20 0 11.1-8.9 20-20 20z" fill="#bfbfbf" p-id="6031"></path><path d="M794.3 839.2H567.9c-28.9 0-52.5-23.5-52.5-52.5V477.5c0-28.9 23.5-52.5 52.5-52.5h134.2c5.3 0 10.4 2.1 14.1 5.9l124.7 124.8c3.7 3.8 5.9 8.8 5.9 14.1v216.9c0 29-23.6 52.5-52.5 52.5zM567.9 465c-6.9 0-12.5 5.6-12.5 12.5v309.2c0 6.9 5.6 12.5 12.5 12.5h226.4c6.9 0 12.5-5.6 12.5-12.5V578.1L693.8 465H567.9z" fill="#bfbfbf" p-id="6032"></path></svg>
