<svg t="1706766328154" class="icon" viewBox="0 0 1024 1024" version="1.1" xmlns="http://www.w3.org/2000/svg" p-id="28877" width="200" height="200"><path d="M704.8 395h-0.2l-89-0.7L640.2 272c0.4-1.7 0.7-3.5 0.8-5.1 3-27-6.9-44.3-15.8-54.1l-0.4-0.4c-11.9-12.7-28.6-19.8-46.1-19.6h-0.5c-11.9 0.4-23.6 3.6-34.1 9.3-5.9 3.2-11 7.5-15.2 12.5l-251.8 298a59.997 59.997 0 0 0-7.8 65.9l0.5 0.9c10.5 19.5 31.1 31.2 55.1 31.3 1.1 0 2.3 0 3.5-0.1h62.2l-47.4 137.2c-1.3 3.7-2.2 7.5-2.6 11.2-2.2 17.4 3.1 35 14.5 48.4l1 1.1c11.6 12.6 28.1 19.8 45.3 19.8h1c9.5-0.2 18.7-2.2 27.3-5.8 7.4-2.9 14-7.5 19.3-13.1l286.3-303h3.9l11.1-17c12.6-19.2 14.4-42.2 4.9-61.5-9.5-18.8-28.2-31.1-50.4-32.9zM433.7 716L496 535.5H356.2l202.5-239.6L523.9 469l142.3 0.9L433.7 716zM512 63.9c-247.1 0-448.1 201-448.1 448.1 0 247.1 201 448.1 448.1 448.1 247.1 0 448.1-201 448.1-448.1 0-247.1-201-448.1-448.1-448.1z m0 820.5c-205.4 0-372.4-167.1-372.4-372.4 0-205.4 167.1-372.4 372.4-372.4 205.4 0 372.4 167.1 372.4 372.4 0 205.4-167 372.4-372.4 372.4z" p-id="28878"></path></svg>
