<?xml version="1.0" standalone="no"?><!DOCTYPE svg PUBLIC "-//W3C//DTD SVG 1.1//EN" "http://www.w3.org/Graphics/SVG/1.1/DTD/svg11.dtd"><svg t="1706752066691" class="icon" viewBox="0 0 1024 1024" version="1.1" xmlns="http://www.w3.org/2000/svg" p-id="5255" xmlns:xlink="http://www.w3.org/1999/xlink" width="200" height="200"><path d="M483.615439 231.208421c7.006316 1.796491 44.373333 15.809123 171.385263 63.056842v1.257544a87.848421 87.848421 0 0 0 77.249123 83.536842c3.054035 40.421053 16.34807 343.309474-244.143158 446.068772h-7.365614c-275.761404-107.789474-244.143158-434.571228-242.885614-445.889123a84.075789 84.075789 0 0 0 77.249122-81.560702v-1.616842l127.371228-48.505263c29.282807-11.138246 37.187368-14.192281 41.319299-16.168421m1.437193-17.964912h-5.748772l-3.054035 1.616842c-6.287719 3.054035-33.235088 12.575439-168.690527 64.494035l-9.521403 4.850526-1.437193 10.958597c-6.467368 61.44-55.152281 66.290526-61.619649 66.290526h-14.192281l-1.437193 14.192281c-1.616842 3.054035-37.905965 351.393684 253.664561 467.087719l3.233685 1.616842h15.629473l3.233685-1.616842c291.570526-114.975439 255.281404-463.315088 255.281403-467.087719l-1.616842-14.012632h-14.192281c-1.437193 0-53.894737-3.233684-61.44-67.907368l-1.437193-10.958597-9.521403-4.670877c-161.684211-60.002807-172.463158-64.314386-177.134035-64.673684z" p-id="5256"></path><path d="M463.494737 351.214035c-7.545263 41.498947-26.228772 111.202807-68.805614 144.976842-34.312982 27.306667-71.859649 75.452632-66.829474 121.083509a114.256842 114.256842 0 0 0 50.840702 73.117193 142.641404 142.641404 0 0 1-4.491228-57.128421c6.287719-42.756491 33.594386-79.764211 82.279298-109.226667a85.153684 85.153684 0 0 1 34.492632-12.036491 247.017544 247.017544 0 0 0-5.928421 38.265263c0 9.341754 1.257544 30.540351 40.96 61.799298a86.770526 86.770526 0 0 1 29.103157 95.034386 139.946667 139.946667 0 0 0 72.757895-74.195087c12.934737-38.804211-0.898246-86.590877-42.037895-141.922807l-14.731228 14.731228a22.815439 22.815439 0 0 1-24.43228 4.850526 21.557895 21.557895 0 0 1-13.832983-20.48c0-4.13193-1.437193-93.776842-68.805614-138.868772z" p-id="5257"></path><path d="M483.795088 173.361404c7.545263 1.796491 51.379649 17.964912 203.901754 74.913684l1.796491 1.077894v3.233685c9.521404 78.506667 70.063158 96.112281 89.824562 96.11228v1.437193c3.233684 41.498947 22.995088 408.881404-291.031579 532.839299h-12.934737C146.773333 752.550175 186.475789 364.148772 188.092632 351.573333a8.982456 8.982456 0 0 0 0-2.155789c22.635789 0 82.818246-17.066667 89.824561-93.776842v-3.772632l2.155789-1.077895c74.913684-28.74386 121.622456-46.349474 150.905264-57.487719 35.929825-13.294035 44.552982-16.887018 49.223859-19.222456h1.257544m1.437193-17.964912h-6.826667l-3.772631 1.796491C467.087719 161.684211 435.469474 172.10386 275.042807 233.54386l-11.138246 5.569122-1.97614 13.114386c-7.365614 72.757895-65.212632 78.327018-72.757895 78.327018H172.463158l-1.796491 16.707368c-1.97614 3.952281-44.912281 416.247018 300.193684 552.421053l3.772631 1.796491h17.964913l3.772631-1.796491c345.824561-136.174035 302.888421-548.468772 302.888421-552.241403l-1.796491-16.707369h-16.887017c-1.796491 0-63.41614-3.772632-72.757895-80.303158l-1.796491-12.934737-11.138246-5.748772C504.275088 161.684211 490.621754 155.755789 485.052632 155.396491z" p-id="5258"></path></svg>