<svg t="1694589879363" class="icon" viewBox="0 0 1103 1024" version="1.1" xmlns="http://www.w3.org/2000/svg" p-id="22020" width="200" height="200"><path d="M511.138047 738.693603c-66.37037 0-120.673401 53.441077-120.673401 119.811448s53.441077 120.673401 119.811448 120.6734 120.673401-53.441077 120.673401-119.811448-53.441077-119.811448-119.811448-120.6734z m-0.861953 169.804713c-26.720539 0-49.131313-22.410774-49.131313-49.131313s22.410774-49.131313 49.131313-49.131313 49.131313 22.410774 49.131313 49.131313c0 27.582492-22.410774 49.131313-49.131313 49.131313z m486.141414-137.050505c-59.474747 0-107.744108 48.26936-108.60606 107.744108 0 59.474747 48.26936 107.744108 107.744108 108.606061 59.474747 0 107.744108-48.26936 107.744107-107.744108 0.861953-59.474747-47.407407-108.606061-106.882155-108.606061z m0 152.565657c-24.13468 0-43.959596-19.824916-43.959596-43.959596s19.824916-43.959596 43.959596-43.959596 43.959596 19.824916 43.959596 43.959596-19.824916 43.959596-43.959596 43.959596z m31.030303-477.521886h-89.643097v-358.57239c0-31.892256-25.858586-57.750842-57.750842-57.750842h-312.888889c-36.20202 0-59.474747 24.13468-64.646464 57.750842l-74.127947 466.316498h-70.680134v-420.632996c0-18.10101-14.653199-31.892256-31.892256-31.892256h-10.343435c-17.239057 0-31.892256 14.653199-31.892255 31.892256V834.37037l-253.414142-2.585858c-15.515152 0-30.16835 17.239057-30.16835 35.340067 0 17.239057 14.653199 41.373737 30.16835 41.373737l294.787879 4.309765c18.10101 0 31.892256-14.653199 31.892256-31.892256v-206.006734h58.612794l-9.481481 71.542087c27.582492-25.858586 63.784512-41.373737 104.296296-41.373737 41.373737 0 80.161616 16.377104 109.468014 45.683502 29.306397 29.306397 44.821549 68.094276 44.821549 108.60606 0 18.10101-3.447811 35.340067-8.619529 50.855219h202.558923c-2.585859-10.343434-3.447811-20.686869-3.447812-31.892256 0-78.43771 63.784512-141.360269 142.222222-141.360269 32.754209 0 63.784512 11.205387 88.781145 31.030303v-263.757576c-0.861953-31.030303-26.720539-57.750842-58.612795-57.750842z m-158.599326-4.309764h-69.818182c-43.097643 0-77.575758 34.478114-77.575758 77.575758v43.097643h-218.074074l68.956229-462.868687h296.511785v342.195286z" fill="#1296db" p-id="22021"></path></svg>
