<svg t="1703485466170" class="icon" viewBox="0 0 1024 1024" version="1.1" xmlns="http://www.w3.org/2000/svg" p-id="4285" width="200" height="200"><path d="M805.243 379.568h-89.272c-19.627-52.731-59.133-95.865-109.376-120.225V162h-189.19v97.343c-50.243 24.36-89.749 67.493-109.376 120.225h-89.272v56.757h76.55c-0.54 6.24-0.874 12.54-0.874 18.919v9.459h-75.676v208.108h75.676v132.432h-75.676V862h586.487v-56.757h-75.676V672.811h75.676V464.703h-75.676v-9.459c0-6.379-0.334-12.679-0.874-18.919h76.55v-56.757zM474.162 218.757h75.676v22.281c-12.298-2.166-24.927-3.363-37.838-3.363s-25.539 1.196-37.838 3.363v-22.281zM512 294.432c61.323 0 114.698 34.524 141.815 85.135h-283.63c27.117-50.611 80.492-85.135 141.815-85.135zM275.514 616.054v-94.595h18.919v94.595h-18.919z m472.973-94.595v94.595h-18.919v-94.595h18.919z m-75.676-66.216v350H351.189v-350c0-6.411 0.482-12.702 1.215-18.919h319.192c0.733 6.217 1.215 12.508 1.215 18.919z" fill="#ffffff" p-id="4286"></path><path d="M426.865 483.622h56.757V701.19h-56.757zM540.378 483.622h56.757V701.19h-56.757z" fill="#ffffff" p-id="4287"></path></svg>
