<?xml version="1.0" standalone="no"?><!DOCTYPE svg PUBLIC "-//W3C//DTD SVG 1.1//EN" "http://www.w3.org/Graphics/SVG/1.1/DTD/svg11.dtd"><svg t="1712028769373" class="icon" viewBox="0 0 1024 1024" version="1.1" xmlns="http://www.w3.org/2000/svg" p-id="59391" xmlns:xlink="http://www.w3.org/1999/xlink" width="200" height="200"><path d="M75.44985 236.139935V506.745236l54.119722 54.119722h757.69618l54.119723-54.119722V236.139935a54.092963 54.092963 0 0 0-54.119723-54.119722H129.576262a54.086274 54.086274 0 0 0-54.126412 54.119722zM883.044548 524.17192H133.797467v-53.517648h749.247081v53.517648zM347.868061 671.345454h46.827943v107.035297h-46.827943zM234.143058 684.724866h60.207355v167.242652h-60.207355zM133.797467 671.345454h53.517648v107.035297h-53.517648zM454.903359 684.724866h53.517648v167.242652h-53.517648zM561.938656 671.345454h60.207355v107.035297h-60.207355zM668.973953 684.724866h53.517649v167.242652h-53.517649zM782.698957 671.345454h46.827942v107.035297h-46.827942z"  p-id="59392"></path></svg>
