<?xml version="1.0" standalone="no"?><!DOCTYPE svg PUBLIC "-//W3C//DTD SVG 1.1//EN" "http://www.w3.org/Graphics/SVG/1.1/DTD/svg11.dtd"><svg t="1712025467592" class="icon" viewBox="0 0 1024 1024" version="1.1" xmlns="http://www.w3.org/2000/svg" p-id="5246" xmlns:xlink="http://www.w3.org/1999/xlink" width="200" height="200"><path d="M24.380952 24.380952v975.238096h975.238096V24.380952H24.380952z m877.714286 877.714286H121.904762v-97.523809h780.190476v97.523809z m0-146.285714H121.904762V268.190476h780.190476v487.619048z m0-536.380953H121.904762V121.904762h780.190476v97.523809z" fill="#1296db" p-id="5247"></path><path d="M780.190476 582.704762L731.428571 536.380952h121.904762v-48.761904h-121.904762l48.761905-43.885715-39.009524-39.009523L633.904762 512l107.27619 109.714286zM243.809524 582.704762l39.009524 39.009524L390.095238 512l-107.27619-107.27619-39.009524 39.009523 48.761905 43.885715H170.666667v48.761904h121.904762z" fill="#1296db" p-id="5248"></path><path d="M512 512m-97.52381 0a97.52381 97.52381 0 1 0 195.04762 0 97.52381 97.52381 0 1 0-195.04762 0Z" fill="#1296db" p-id="5249"></path></svg>