<?xml version="1.0" standalone="no"?><!DOCTYPE svg PUBLIC "-//W3C//DTD SVG 1.1//EN" "http://www.w3.org/Graphics/SVG/1.1/DTD/svg11.dtd"><svg t="1712028145402" class="icon" viewBox="0 0 1301 1024" version="1.1" xmlns="http://www.w3.org/2000/svg" p-id="54332" xmlns:xlink="http://www.w3.org/1999/xlink" width="254.1015625" height="200"><path d="M616.269395 452.484961c60.447752-13.335814 99.153364-69.143814 90.600186-130.317891-6.667907-47.258791-43.488248-86.543876-90.163597-96.109148-4.643721-1.016062-9.279504-1.742388-13.919255-2.611596h-1.30183c-0.436589 0.436589-1.016062 0.289736-1.452651 0.289736-0.579473 0-1.301829 0.146853-1.881302-0.289736h-12.466605c-0.436589 0.436589-0.873178 0.289736-1.309767 0.289736-0.43262 0-1.012093 0-1.30183-0.289736h-2.607628c-0.146853 0.873178-1.016062 0.726326-1.595535 0.726325-4.060279 0.722357-8.263442 1.305798-12.319752 2.175008-62.19014 14.931349-100.026543 74.656744-86.980465 137.565271 12.466605 61.463814 75.38307 102.054698 136.700031 88.572031zM1270.62524 0.206388H32.367132a30.438202 30.438202 0 0 0-30.442171 30.44217v959.499907a30.438202 30.438202 0 0 0 30.442171 30.442171h1238.258108a30.438202 30.438202 0 0 0 30.442171-30.442171V30.648558a30.438202 30.438202 0 0 0-30.442171-30.44217z m-267.017922 914.416124H195.734822a15.681488 15.681488 0 0 1-15.653706-15.653706c0-8.553178 7.104496-15.657674 15.653706-15.657674h807.872496a15.681488 15.681488 0 0 1 15.653705 15.657674 15.681488 15.681488 0 0 1-15.653705 15.653706z m15.796589-92.775194a15.681488 15.681488 0 0 1-15.653705 15.657674H195.734822a15.681488 15.681488 0 0 1-15.653706-15.657674 15.681488 15.681488 0 0 1 15.653706-15.653706h807.872496c8.696062 0 15.796589 7.104496 15.796589 15.653706z m0-155.108217h-251.070512c0.289736-0.436589 0.289736-1.016062 0.289737-1.885272v-159.315348c-0.722357-3.187101-0.436589-6.521054-1.448682-9.708155a53.597271 53.597271 0 0 0-10.581334-19.567132c-11.597395-13.486636-26.528744-20.154543-44.214573-19.717954-14.49476 0.436589-26.818481 6.525023-37.399814 16.380031-18.844775 17.542946-40.733767 28.703752-66.103566 33.196651-9.855008 1.738419-19.856868 2.317891-29.858729 1.305799-14.498729-1.742388-27.25507-7.830822-39.574822-15.510822-12.613457-7.977674-24.210853-17.396093-36.240868-26.239008-4.492899-3.19107-8.700031-6.667907-14.062139-8.406325-7.973705-2.611597-16.090295-3.917395-24.643473-3.044217-12.319752 1.301829-22.901085 6.231318-31.747969 14.49476-9.565271 8.985798-15.510822 20.003721-16.669768 33.339534v2.032124c0.579473 1.301829 0.579473 2.607628 0 3.913427v156.703752c0 0.869209 0 1.448682 0.289737 1.881302h-229.328372V146.908279h832.222263v519.830822h0.146853z m145.689798-5.651845c-17.828713 0-32.327442-14.498729-32.327441-32.327442 0-17.832682 14.498729-32.327442 32.327441-32.327442 17.828713 0 32.327442 14.49476 32.327442 32.327442 0 17.828713-14.498729 32.327442-32.327442 32.327442z m0-155.981396c-17.828713 0-32.327442-14.49476-32.327441-32.323472 0-17.832682 14.498729-32.327442 32.327441-32.327442 17.828713 0 32.327442 14.49476 32.327442 32.327442 0 17.828713-14.498729 32.323473-32.327442 32.323472z m-749.01631-1.012093c2.698915 1.301829 2.024186 2.607628 0 3.913427v-3.913427z m184.875659-279.297984c-1.051783 0.337364-2.103566 0.674729-2.948961-1.349457h2.95293c0.210357 0.337364 0.420713 0.674729 0.420713 1.012093-0.210357 0.337364-0.420713 0.337364-0.420713 0.337364z m-15.32031 0c-1.266109 0.337364-2.532217 0.674729-2.849736-1.349457h2.849736c0.635039 0.337364 0.635039 0.674729 0.31752 1.012093 0 0 0 0.337364-0.31752 0.337364z m-1.547907 0v-1.349457h3.040248c-0.337364 1.686822-1.686822 1.686822-3.036279 1.349457z m15.947411 0v-1.349457h3.036279c-0.674729 1.686822-2.024186 1.349457-3.036279 1.349457z"  p-id="54333"></path></svg>
