<?xml version="1.0" encoding="utf-8"?>
<svg version="1.1" xmlns:xlink="http://www.w3.org/1999/xlink" width="19px" height="25px" xmlns="http://www.w3.org/2000/svg">
  <g transform="matrix(1 0 0 1 -1534 -862 )">
    <path d="M 18.96675 1  L 0.0475 1  L 0.0475 3  L 18.96675 3  L 18.96675 1  Z M 15.444625 22.784375  L 15.485 22.784375  C 14.124125 22.03125  12.627875 21.809375  11.172 22.1375  C 10.552125 22.271875  9.94175 22.4875  9.355125 22.784375  C 8.07025 23.51875  6.65 23.74375  5.26775 23.43125  C 4.62175 23.309375  3.98525 23.090625  3.374875 22.784375  L 3.374875 23.63125  C 3.930625 23.940625  4.51725 24.140625  5.11575 24.228125  C 6.479 24.521875  7.8755 24.33125  9.165125 23.68125  C 9.830125 23.296875  10.528375 23.03125  11.245625 22.884375  C 12.67775 22.4875  14.16925 22.7875  15.444625 23.73125  L 15.444625 22.784375  Z M 15.444625 19.996875  L 15.485 19.946875  C 14.117 19.228125  12.62075 19.0375  11.172 19.4  C 10.552125 19.534375  9.94175 19.75  9.355125 20.046875  C 8.0655 20.7625  6.64525 20.971875  5.26775 20.64375  C 4.62175 20.521875  3.98525 20.303125  3.374875 19.996875  L 3.374875 20.84375  C 3.930625 21.153125  4.51725 21.353125  5.11575 21.440625  C 6.479 21.734375  7.8755 21.54375  9.165125 20.89375  C 9.830125 20.509375  10.528375 20.24375  11.245625 20.096875  C 12.67775 19.7  14.16925 20  15.444625 20.94375  L 15.444625 19.996875  Z M 13.820125 15.11875  L 13.820125 15.06875  C 13.815375 15.396875  13.615875 15.659375  13.3665 15.665625  L 12.646875 15.665625  L 12.646875 9.790625  L 13.820125 9.790625  L 13.820125 15.11875  Z M 11.324 9.790625  L 11.324 15.665625  L 10.15075 15.665625  L 10.15075 9.790625  L 11.324 9.790625  Z M 8.8635 9.790625  L 8.8635 15.665625  L 7.69025 15.665625  L 7.69025 9.790625  L 8.8635 9.790625  Z M 6.367375 9.790625  L 6.367375 15.665625  L 5.64775 15.665625  C 5.398375 15.659375  5.198875 15.396875  5.194125 15.06875  L 5.194125 9.790625  L 6.367375 9.790625  Z M 15.487375 8.396875  L 9.507125 8.396875  L 3.52925 8.396875  L 3.52925 14.421875  C 3.526875 15.240625  3.773875 16.028125  4.21325 16.609375  C 4.652625 17.1875  5.251125 17.5125  5.87575 17.509375  L 13.140875 17.509375  C 13.763125 17.5125  14.361625 17.1875  14.803375 16.609375  C 15.24275 16.03125  15.48975 15.24375  15.487375 14.421875  L 15.487375 8.396875  Z " fill-rule="nonzero" fill="#02a7f0" stroke="none" transform="matrix(1 0 0 1 1534 862 )" />
  </g>
</svg>