<svg t="1651116315787" class="icon" viewBox="0 0 1024 1024" version="1.1" xmlns="http://www.w3.org/2000/svg" p-id="4186" width="200" height="200"><path d="M121.904762 97.52381a24.380952 24.380952 0 0 1 23.990857 19.99238l0.390095 4.388572v780.190476a24.380952 24.380952 0 0 1-48.371809 4.388572L97.52381 902.095238v-780.190476A24.380952 24.380952 0 0 1 121.904762 97.52381z m780.190476 0a24.380952 24.380952 0 0 1 23.990857 19.99238l0.390095 4.388572v780.190476a24.380952 24.380952 0 0 1-48.371809 4.388572l-0.390095-4.388572v-780.190476A24.380952 24.380952 0 0 1 902.095238 97.52381zM463.238095 146.285714v731.428572H170.666667V146.285714h292.571428z m390.095238 0v731.428572h-292.571428V146.285714h292.571428z" fill="#1296db" p-id="4187"></path></svg>