<?xml version="1.0" standalone="no"?><!DOCTYPE svg PUBLIC "-//W3C//DTD SVG 1.1//EN" "http://www.w3.org/Graphics/SVG/1.1/DTD/svg11.dtd"><svg t="1712029720508" class="icon" viewBox="0 0 1024 1024" version="1.1" xmlns="http://www.w3.org/2000/svg" p-id="64987" xmlns:xlink="http://www.w3.org/1999/xlink" width="200" height="200"><path d="M854.79619 139.897905a51.2 51.2 0 0 1 51.590096 50.614857 51.2 51.2 0 0 1-51.590096 50.663619L471.430095 341.918476l-0.195047 0.048762-137.216 36.376381v441.782857c0 26.136381-22.625524 45.689905-48.956953 45.689905H107.666286c-26.331429 0-46.957714-19.456-46.957715-45.689905V201.094095c0-13.312 5.266286-24.478476 13.945905-32.329143a48.761905 48.761905 0 0 1 33.01181-11.995428h177.395809c26.331429 0 48.956952 18.041905 48.956953 44.324571v75.971048l520.777142-137.167238z m-80.798476 320.755809c13.994667 0 25.502476 3.900952 34.523429 11.605334 8.97219 7.753143 15.262476 16.822857 18.870857 27.306666l11.312762 33.450667c3.998476 12.239238 8.045714 24.478476 12.190476 36.766476l11.605333 34.279619c3.608381 10.630095 6.436571 18.822095 8.630858 24.576 19.407238 1.80419 35.547429 8.289524 48.274285 19.456 12.775619 11.166476 19.163429 26.672762 19.163429 46.470095v106.398477h-67.437714v31.353904a32.377905 32.377905 0 0 1-9.752381 23.747048 32.280381 32.280381 0 0 1-23.698286 9.752381h-34.03581a32.329143 32.329143 0 0 1-23.747047-9.752381 32.377905 32.377905 0 0 1-9.703619-23.747048v-31.353904h-202.361905v31.353904a31.98781 31.98781 0 0 1-9.996191 23.747048 33.158095 33.158095 0 0 1-24.039619 9.752381h-33.987047a32.329143 32.329143 0 0 1-23.747048-9.752381 32.329143 32.329143 0 0 1-9.752381-23.747048v-31.353904H398.384762v-106.398477c0-20.187429 6.38781-35.84 19.163428-47.006476 12.775619-11.166476 28.867048-17.456762 48.274286-18.919619 1.462857-6.095238 3.705905-14.384762 6.826667-24.868571l9.654857-33.743238c6.534095-22.918095 13.653333-45.738667 21.357714-68.315429 9.703619-27.40419 30.037333-41.057524 60.952381-41.057524h209.432381zM464.700952 663.747048a31.841524 31.841524 0 0 0-23.747047 9.99619 33.206857 33.206857 0 0 0-9.752381 24.039619c0 9.362286 3.267048 17.310476 9.752381 23.79581s14.384762 9.752381 23.747047 9.752381a33.206857 33.206857 0 0 0 23.990858-9.752381 31.98781 31.98781 0 0 0 9.99619-23.79581 32.768 32.768 0 0 0-9.99619-24.039619 32.670476 32.670476 0 0 0-23.990858-9.99619z m405.845334-1.609143a33.401905 33.401905 0 0 0-24.576 9.99619 33.54819 33.54819 0 0 0-9.947429 24.576 33.645714 33.645714 0 0 0 9.947429 24.332191c6.680381 6.826667 14.872381 10.24 24.576 10.24 9.313524 0 17.456762-3.413333 24.283428-10.24a33.304381 33.304381 0 0 0 10.24-24.332191c0-9.752381-3.413333-17.895619-10.24-24.576a33.645714 33.645714 0 0 0-24.283428-9.99619z m-73.97181-131.803429H539.794286l-17.798096 98.840381h294.668191l-19.992381-98.840381zM261.12 468.894476H127.268571l-1.852952 0.097524a15.896381 15.896381 0 0 0-13.994667 15.896381c0 8.874667 7.070476 15.993905 15.847619 15.993905h133.948953l1.852952-0.097524a15.945143 15.945143 0 0 0 12.824381-21.991619 15.896381 15.896381 0 0 0-14.677333-9.898667z m204.848762-190.268952L244.443429 337.92a16.042667 16.042667 0 0 1-15.116191-3.803429c-11.702857-11.215238-27.306667-14.872381-44.129524-10.386285a48.420571 48.420571 0 0 0-34.377143 59.001904 48.274286 48.274286 0 0 0 59.245715 33.792c16.725333-4.486095 28.525714-15.506286 33.060571-30.963809a16.042667 16.042667 0 0 1 11.215238-10.873905L453.485714 321.340952l12.434286-42.715428z m210.748952-60.806095l-156.476952 41.935238-12.53181 42.715428 156.525715-41.935238 12.483047-42.666667z m202.99581-31.695239a19.21219 19.21219 0 0 0-24.039619-13.165714l-132.876191 35.596191-12.580571 42.666666 155.257905-41.593904a19.21219 19.21219 0 0 0 14.238476-23.503239z" p-id="64988" ></path></svg>
