<svg t="1651116184833" class="icon" viewBox="0 0 1024 1024" version="1.1" xmlns="http://www.w3.org/2000/svg" p-id="3249" width="200" height="200"><path d="M248.685714 170.666667H212.114286c-9.752381 0-17.066667 7.314286-17.066667 17.066666v648.533334c0 9.752381 7.314286 17.066667 17.066667 17.066666h36.571428c9.752381 0 17.066667-7.314286 17.066667-17.066666V187.733333c0-9.752381-7.314286-17.066667-17.066667-17.066666z m575.390476 0h-36.571428c-9.752381 0-17.066667 7.314286-17.066667 17.066666v648.533334c0 9.752381 7.314286 17.066667 17.066667 17.066666h36.571428c9.752381 0 17.066667-7.314286 17.066667-17.066666V187.733333c0-9.752381-9.752381-17.066667-17.066667-17.066666z m-102.4 39.009523H314.514286c-9.752381 0-17.066667 7.314286-17.066667 17.066667v570.514286c0 9.752381 7.314286 17.066667 17.066667 17.066667h407.161904c9.752381 0 17.066667-7.314286 17.066667-17.066667V226.742857c0-9.752381-7.314286-17.066667-17.066667-17.066667z m-104.838095 121.904762c19.504762 0 36.571429 17.066667 36.571429 36.571429s-17.066667 36.571429-36.571429 36.571429-36.571429-17.066667-36.571428-36.571429c0-21.942857 14.628571-36.571429 36.571428-36.571429z m-195.047619 0c19.504762 0 36.571429 17.066667 36.571429 36.571429s-17.066667 36.571429-36.571429 36.571429-36.571429-17.066667-36.571428-36.571429c0-21.942857 17.066667-36.571429 36.571428-36.571429z m73.142857 202.361905c0 7.314286-4.87619 12.190476-12.190476 12.190476h-2.438095c-7.314286 0-12.190476-4.87619-12.190476-12.190476v-87.771428h-7.314286v229.180952c0 7.314286-7.314286 14.628571-14.628571 14.628571h-2.438096c-7.314286 0-14.628571-7.314286-14.628571-14.628571v-109.714286h-12.190476v109.714286c0 7.314286-7.314286 14.628571-14.628572 14.628571h-2.438095c-7.314286 0-14.628571-7.314286-14.628571-14.628571v-229.180952h-7.314286v87.771428c0 7.314286-4.87619 12.190476-12.190476 12.190476h-2.438096c-7.314286 0-12.190476-4.87619-12.190476-12.190476v-97.523809c0-12.190476 9.752381-19.504762 19.504762-19.504762h102.4c12.190476 0 19.504762 9.752381 19.504762 19.504762l2.438095 97.523809z m192.609524 0c0 7.314286-4.87619 12.190476-12.190476 12.190476h-2.438095c-7.314286 0-12.190476-4.87619-12.190476-12.190476v-87.771428h-7.314286v229.180952c0 7.314286-7.314286 14.628571-14.628572 14.628571h-2.438095c-7.314286 0-14.628571-7.314286-14.628571-14.628571v-109.714286H609.52381v109.714286c0 7.314286-7.314286 14.628571-14.628572 14.628571h-2.438095c-7.314286 0-14.628571-7.314286-14.628572-14.628571v-229.180952h-7.314285v87.771428c0 7.314286-4.87619 12.190476-12.190476 12.190476h-2.438096c-7.314286 0-12.190476-4.87619-12.190476-12.190476v-97.523809c0-12.190476 9.752381-19.504762 19.504762-19.504762h102.4c12.190476 0 19.504762 9.752381 19.504762 19.504762l2.438095 97.523809z" p-id="3250" ></path></svg>
