<?xml version="1.0" standalone="no"?><!DOCTYPE svg PUBLIC "-//W3C//DTD SVG 1.1//EN" "http://www.w3.org/Graphics/SVG/1.1/DTD/svg11.dtd"><svg t="1712029654210" class="icon" viewBox="0 0 1024 1024" version="1.1" xmlns="http://www.w3.org/2000/svg" p-id="61304" xmlns:xlink="http://www.w3.org/1999/xlink" width="200" height="200"><path d="M837.497441 949.418702V613.905025a332.040027 332.040027 0 1 0-664.080054 0v335.513677H62.8736V1024h896.201574v-74.581298z m-405.803996 0V613.905025a73.763969 73.763969 0 1 1 147.527938 0v335.513677z m247.03778-745.812984a32.284507 32.284507 0 0 0 48.018096-14.916259l33.101837-67.021003a32.693172 32.693172 0 0 0-14.711928-48.42676 32.080175 32.080175 0 0 0-47.813763 14.916259l-33.306169 67.021003a33.101837 33.101837 0 0 0 14.711927 48.42676z m177.156125 126.890374l59.052042-40.866465a33.714833 33.714833 0 0 0 7.355963-52.104743 32.897504 32.897504 0 0 0-51.696078-7.560296l-59.052041 40.866465a33.714833 33.714833 0 0 0-7.355964 52.104743 39.436139 39.436139 0 0 0 51.696078 7.560296z m-347.364951-178.995116a35.14516 35.14516 0 0 0 36.984151-37.392816V39.731194a36.984151 36.984151 0 1 0-73.763969 0v74.376966a37.188483 37.188483 0 0 0 36.779818 37.392816zM287.639157 188.689459a33.714833 33.714833 0 0 0 48.018096 14.916259 34.532163 34.532163 0 0 0 14.711927-48.42676L317.267344 88.157955a33.510501 33.510501 0 0 0-47.813764-14.916259 36.575486 36.575486 0 0 0-14.711928 48.42676z m-143.032627 141.806633a38.823142 38.823142 0 0 0 51.696078-7.560296A41.888126 41.888126 0 0 0 185.472995 267.970401l-59.869371-40.866465a38.823142 38.823142 0 0 0-51.696078 7.355963 40.866465 40.866465 0 0 0 7.355963 51.287414z" p-id="61305" fill="#1296db"></path></svg>