<?xml version="1.0" standalone="no"?><!DOCTYPE svg PUBLIC "-//W3C//DTD SVG 1.1//EN" "http://www.w3.org/Graphics/SVG/1.1/DTD/svg11.dtd"><svg t="1712025958176" class="icon" viewBox="0 0 1207 1024" version="1.1" xmlns="http://www.w3.org/2000/svg" p-id="31426" xmlns:xlink="http://www.w3.org/1999/xlink" width="235.7421875" height="200"><path d="M528.775885 917.976409C751.559633 926.028834 939.449541 750.217562 946.159895 526.091743c0-28.183486-2.684142-56.366972-8.052424-83.208388h154.338138V107.365662H540.854522C322.096986 107.365662 143.601573 281.834862 135.549148 500.592398 128.838794 724.718218 304.650066 911.266055 528.775885 917.976409zM224.125819 520.72346c2.684142-174.469201 144.943644-314.044561 318.070773-314.044561 177.153342 1.342071 320.754915 146.285714 319.412844 324.781127C858.925295 707.271298 713.981651 848.188729 536.828309 845.504587c-175.811271-4.026212-316.728702-148.969856-312.70249-324.781127z" fill="#1296db" p-id="31427"></path><path d="M293.913499 530.117955c2.684142 136.891219 115.418087 246.941022 252.309306 244.256881C684.456094 771.690695 794.505898 658.95675 791.821756 522.065531c-2.684142-135.549148-112.733945-244.256881-248.283093-244.256881-138.23329 0-249.625164 114.076016-249.625164 252.309305z m276.46658-143.601572l-5.368283 71.129751c4.026212 20.131062-9.394495 40.262123-30.867628 44.288335h-5.368283c-21.473132 1.342071-38.920052-14.762779-40.262124-36.235911v-2.684141l-14.762778-69.78768c-1.342071-22.815203 14.762779-42.946265 38.920052-45.630407l12.078637-1.34207c24.157274 0 44.288336 17.44692 45.630407 40.262123z m-5.368283 173.127129v-5.368283c8.052425-18.788991 30.867628-28.183486 49.656618-20.131061l2.684142 1.342071 67.103538 17.44692c21.473132 9.394495 32.209699 33.551769 22.815204 55.024901l-4.026213 12.078637c-8.052425 21.473132-32.209699 30.867628-53.682831 22.815203L590.51114 607.95806c-20.131062-6.710354-30.867628-28.183486-25.499344-48.314548z m-52.340761-28.183486c5.368283-12.078637 17.44692-17.44692 29.525557-13.420708 12.078637 5.368283 17.44692 18.788991 13.420708 30.867628-4.026212 12.078637-17.44692 17.44692-29.525557 13.420708-13.420708-5.368283-18.788991-18.788991-13.420708-30.867628z m-130.180865 41.604194l64.419397-26.841415c16.104849-12.078637 40.262123-9.394495 52.340761 6.710354 0 1.342071 1.342071 2.684142 2.684141 2.684141l1.342071 2.684142c10.736566 18.788991 4.026212 41.604194-14.762779 52.34076 0 0-1.342071 1.342071-2.684141 1.342071l-55.024902 44.288335c-18.788991 12.078637-44.288336 5.368283-56.366972-13.420708v-1.34207l-6.710354-10.736567c-12.078637-20.131062-5.368283-45.630406 14.762778-57.709043z" fill="#1296db" p-id="31428"></path></svg>