<?xml version="1.0" standalone="no"?><!DOCTYPE svg PUBLIC "-//W3C//DTD SVG 1.1//EN" "http://www.w3.org/Graphics/SVG/1.1/DTD/svg11.dtd"><svg t="1712025817354" class="icon" viewBox="0 0 1093 1024" version="1.1" xmlns="http://www.w3.org/2000/svg" p-id="22647" xmlns:xlink="http://www.w3.org/1999/xlink" width="213.4765625" height="200"><path d="M530.152727 471.660606c-24.669091-242.967273-125.052121-299.597576-106.899394-307.2C510.138182 126.138182 701.750303 137.464242 791.272727 232.727273c72.300606 76.024242-147.393939 227.762424-197.818182 257.706666a57.406061 57.406061 0 0 0-63.767272-18.618181z m0 0" p-id="22648" ></path><path d="M530.152727 471.660606c-24.669091-242.967273-125.517576-300.993939-106.433939-307.044848A370.191515 370.191515 0 0 1 667.151515 161.202424c98.366061 53.21697-44.218182 258.637576-88.436363 315.267879a53.527273 53.527273 0 0 0-47.941819-4.809697z m71.835152 31.030303c242.967273-21.721212 300.373333-121.328485 309.061818-102.710303 37.081212 87.970909 23.272727 279.272727-73.231515 367.553939-77.575758 70.904242-225.900606-150.652121-255.379394-201.696969a56.630303 56.630303 0 0 0 19.549091-63.301818z m0 0" p-id="22649" ></path><path d="M601.987879 503.156364c242.967273-22.186667 301.459394-121.793939 308.596363-103.175758a373.139394 373.139394 0 0 1 0 242.967273c-54.613333 97.900606-257.706667-47.476364-314.336969-91.694546a52.286061 52.286061 0 0 0 5.740606-47.941818z m-34.288485 67.025454c29.478788 242.036364 130.792727 296.649697 113.570909 305.18303C593.92 915.393939 402.307879 907.636364 310.30303 814.545455c-74.162424-75.093333 142.584242-230.089697 192.543031-261.430303a57.716364 57.716364 0 0 0 64.232727 17.066666z m0 0" p-id="22650" ></path><path d="M567.699394 570.181818c29.478788 242.036364 131.258182 297.580606 112.64 305.18303a370.346667 370.346667 0 0 1-242.967273 8.067879c-99.29697-51.820606 39.408485-259.10303 81.764849-317.129697a54.613333 54.613333 0 0 0 48.562424 3.723637zM499.74303 543.030303c-241.570909 35.684848-293.85697 138.395152-303.321212 119.311515-42.356364-84.557576-38.94303-276.169697 51.820606-369.881212 74.162424-75.558788 234.433939 137.464242 266.705455 186.181818a57.406061 57.406061 0 0 0-15.515152 64.698182z m0 0" p-id="22651" ></path><path d="M499.74303 543.030303c-241.570909 35.684848-294.787879 138.860606-302.855757 120.242424a373.604848 373.604848 0 0 1-13.343031-242.967272c49.493333-100.848485 259.568485 33.202424 318.991516 74.162424a54.458182 54.458182 0 0 0-2.792728 48.562424z m0 0" p-id="22652" ></path><path d="M550.167273 994.676364A473.987879 473.987879 0 0 1 214.884848 186.181818a473.832727 473.832727 0 1 1 670.409697 669.63394 468.712727 468.712727 0 0 1-335.127272 138.860606z m0-906.24a432.09697 432.09697 0 1 0 432.096969 432.252121A432.872727 432.872727 0 0 0 550.167273 88.436364z m0 0" p-id="22653" ></path></svg>
