<?xml version="1.0" standalone="no"?><!DOCTYPE svg PUBLIC "-//W3C//DTD SVG 1.1//EN" "http://www.w3.org/Graphics/SVG/1.1/DTD/svg11.dtd"><svg t="1712026098519" class="icon" viewBox="0 0 1024 1024" version="1.1" xmlns="http://www.w3.org/2000/svg" p-id="48534" xmlns:xlink="http://www.w3.org/1999/xlink" width="200" height="200"><path d="M296.106667 943.104v-74.225778h439.850666v74.225778H296.106667z m106.808889-106.666667a31.729778 31.729778 0 0 1-31.488-31.971555v-373.191111a31.744 31.744 0 0 0-31.488-32h-57.742223a31.729778 31.729778 0 0 1-31.502222-31.985778V150.869333a31.729778 31.729778 0 0 1 31.502222-32h122.808889c20.721778 0.995556 41.130667 5.504 60.373334 13.312 0 0 47.246222 19.740444 49.863111 60.771556a78.748444 78.748444 0 0 1 78.222222-73.571556h5.248v-0.526222h154.311111a31.744 31.744 0 0 1 31.502222 32v216.419556a31.729778 31.729778 0 0 1-31.488 31.985777h-48.810666a31.744 31.744 0 0 0-31.488 32v373.191112a31.744 31.744 0 0 1-31.488 31.971555l-238.336 0.014222z m403.584-387.669333V85.333333h87.409777v363.434667h-87.409777z m-670.179556 0V85.333333h87.424v363.434667H136.32z m778.951111-143.502222V233.244444c0-18.147556 3.228444-32.981333 6.968889-32.981333s6.954667 9.955556 6.954667 21.432889c0 11.477333 5.888 21.447111 13.411555 21.447111a13.553778 13.553778 0 0 0 13.368889-12.657778v-11.548444a54.826667 54.826667 0 0 1 39.537778 53.063111 54.769778 54.769778 0 0 1-39.537778 53.063111c0-17.578667-5.873778-31.900444-13.368889-31.900444-7.495111 0-13.411556 10.439111-13.411555 22.542222s-3.2 22.542222-6.968889 22.542222c-3.740444 0-6.968889-14.833778-6.968889-32.981333z m-820.807111 10.979555c0-11.534222-5.888-21.418667-13.383111-21.418666a13.326222 13.326222 0 0 0-9.685333 4.195555 14.08 14.08 0 0 0-3.726223 10.083556c0 7.111111-11.776 4.408889-26.24-6.058667a41.813333 41.813333 0 0 1-12.8-34.133333 54.855111 54.855111 0 0 1 39.111111-54.983111c0 17.592889 5.916444 31.900444 13.411556 31.900444h16.071111l-2.702222-0.540444v-22.542223c0-12.103111 3.242667-22.542222 6.997333-22.542222s6.954667 14.833778 6.954667 32.981334v71.480888c0 18.119111-3.2 32.981333-6.968889 32.981334-3.740444 0-7.04-9.841778-7.04-21.404445z"  p-id="48535"></path></svg>
