<?xml version="1.0" standalone="no"?><!DOCTYPE svg PUBLIC "-//W3C//DTD SVG 1.1//EN" "http://www.w3.org/Graphics/SVG/1.1/DTD/svg11.dtd"><svg t="1712025658455" class="icon" viewBox="0 0 1024 1024" version="1.1" xmlns="http://www.w3.org/2000/svg" p-id="16709" xmlns:xlink="http://www.w3.org/1999/xlink" width="200" height="200"><path d="M749.056427 149.674667A360.533333 360.533333 0 0 0 493.26976 42.666667H491.520427a360.277333 360.277333 0 0 0-256.938667 106.538666A361.216 361.216 0 0 0 128.000427 406.144c0 98.986667 39.082667 191.488 109.952 260.522667a270.933333 270.933333 0 0 1 65.877333 102.912h375.04c13.397333-38.4 35.2-73.386667 64.512-101.290667a361.6 361.6 0 0 0 111.530667-262.144 360.874667 360.874667 0 0 0-105.856-256.469333zM432.640427 196.010667a218.709333 218.709333 0 0 0-159.274667 210.133333 18.218667 18.218667 0 0 1-18.176 18.133333 18.218667 18.218667 0 0 1-18.133333-18.133333 255.146667 255.146667 0 0 1 186.026666-245.12 18.090667 18.090667 0 1 1 9.557334 34.986667zM318.80576 856.576v58.368c0 34.986667 28.629333 63.616 63.616 63.616h30.421333A91.306667 91.306667 0 0 0 491.520427 1024c32.682667 0 62.677333-17.92 78.592-45.44h30.421333c34.986667 0 63.573333-28.586667 63.573333-63.573333v-58.410667c0-17.066667 1.621333-34.048 5.034667-50.645333H313.81376c3.2 16.597333 4.992 33.621333 4.992 50.645333z m90.88 3.84h163.541333a18.218667 18.218667 0 0 1 0 36.352H409.68576a18.218667 18.218667 0 0 1-18.176-18.133333c0-10.026667 8.192-18.176 18.176-18.176z" fill="#1296db" p-id="16710"></path></svg>