<svg t="1706767942183" class="icon" viewBox="0 0 1024 1024" version="1.1" xmlns="http://www.w3.org/2000/svg" p-id="37626" width="200" height="200"><path d="M555.776 992h-448c-35.2 0-64-28.8-64-64v-832c0-35.2 28.8-64 64-64h576c35.2 0 64 28.8 64 64v448h-128c-35.2 0-64 28.8-64 64v384z m6.4-716.8h-332.8c-32 0-57.6-25.6-57.6-57.6s25.6-57.6 57.6-57.6h332.8c32 0 57.6 25.6 57.6 57.6s-25.6 57.6-57.6 57.6z m0 192h-332.8c-32 0-57.6-25.6-57.6-57.6s25.6-57.6 57.6-57.6h332.8c32 0 57.6 25.6 57.6 57.6s-25.6 57.6-57.6 57.6z m-166.4 76.8c-46.08 0-83.2 37.12-83.2 83.2 0 46.08 37.12 83.2 83.2 83.2 46.08 0 83.2-37.12 83.2-83.2 0-46.08-37.12-83.2-83.2-83.2z" p-id="37627"></path><path d="M576.32 800h96v133.12l96-197.12h-96v-128l-96 192zM886.528 622.976a14.976 14.976 0 0 1 25.6-10.624 231.296 231.296 0 0 1 68.096 164.416 231.424 231.424 0 0 1-68.096 164.352 14.976 14.976 0 1 1-21.248-21.248 201.152 201.152 0 0 0 59.392-143.104c0-54.08-21.12-104.896-59.392-143.168a14.976 14.976 0 0 1-4.352-10.624z m-52.352 258.752c0-3.84 1.472-7.68 4.416-10.56a133.632 133.632 0 0 0 0-188.8 14.976 14.976 0 0 1 21.184-21.248 162.624 162.624 0 0 1 47.936 115.648 162.688 162.688 0 0 1-47.936 115.584 14.976 14.976 0 0 1-25.6-10.624z m-45.44-61.824c0-3.84 1.536-7.68 4.48-10.624a45.696 45.696 0 0 0 0-65.024 14.976 14.976 0 0 1 21.184-21.248c14.336 14.4 22.272 33.472 22.272 53.76 0 20.288-7.936 39.36-22.272 53.76a14.976 14.976 0 0 1-25.6-10.688z" p-id="37628"></path></svg>
