<svg t="1706767762615" class="icon" viewBox="0 0 1024 1024" version="1.1" xmlns="http://www.w3.org/2000/svg" p-id="34283" width="200" height="200"><path d="M672 992H96V192c0-52.9 43.1-96 96-96h384c52.9 0 96 43.1 96 96v800z m-512-64h448V192c0-17.6-14.3-32-32-32H192c-17.6 0-32 14.4-32 32v736z" p-id="34284"></path><path d="M352 96h64v832h-64zM912 608H784c-26.5 0-48-21.5-48-48V336c0-26.5 21.5-48 48-48h128c26.5 0 48 21.5 48 48v224c0 26.5-21.5 48-48 48zM784 320c-8.8 0-16 7.2-16 16v224c0 8.8 7.2 16 16 16h128c8.8 0 16-7.2 16-16V336c0-8.8-7.2-16-16-16H784z" p-id="34285"></path><path d="M876.6 364.5l29.6 59.1H789.8l29.6-59.1c7.9-15.8 27.1-22.2 42.9-14.3 6.2 3.1 11.2 8.1 14.3 14.3zM876.6 523.1l29.6-59.1H789.8l29.6 59.1c7.9 15.8 27.1 22.2 42.9 14.3 6.2-3.1 11.2-8.1 14.3-14.3z" p-id="34286"></path><path d="M992 992H32c-17.7 0-32-14.3-32-32s14.3-32 32-32h960c17.7 0 32 14.3 32 32s-14.3 32-32 32z" p-id="34287"></path></svg>
