<?xml version="1.0" standalone="no"?><!DOCTYPE svg PUBLIC "-//W3C//DTD SVG 1.1//EN" "http://www.w3.org/Graphics/SVG/1.1/DTD/svg11.dtd"><svg t="1706756688147" class="icon" viewBox="0 0 1024 1024" version="1.1" xmlns="http://www.w3.org/2000/svg" p-id="8109" xmlns:xlink="http://www.w3.org/1999/xlink" width="200" height="200"><path d="M523.392 294.336a238.208 238.208 0 0 1 237.888 237.952 237.12 237.12 0 0 1-164.992 226.432l-41.856 13.504v71.68h-62.08v-71.68l-41.92-13.504A237.248 237.248 0 0 1 285.44 532.288a238.08 238.08 0 0 1 237.952-237.952z m0-60.544a298.496 298.496 0 0 0-91.584 582.528v64.128c0 13.12 10.688 23.808 23.808 23.808h135.296a23.872 23.872 0 0 0 23.808-23.808v-64.128a298.432 298.432 0 0 0 206.912-284.032 298.24 298.24 0 0 0-298.24-298.496z" p-id="8110"></path><path d="M523.392 481.664a41.728 41.728 0 1 1-0.064 83.456 41.728 41.728 0 0 1 0-83.456z m0-60.416a102.08 102.08 0 1 0-0.064 204.16 102.08 102.08 0 0 0 0-204.16zM597.12 1024H449.6a30.208 30.208 0 1 1 0-60.48H597.12a30.208 30.208 0 1 1 0 60.48zM523.392 196.16a30.208 30.208 0 0 1-30.272-30.272v-71.68a30.208 30.208 0 1 1 60.48 0v71.808a30.336 30.336 0 0 1-30.208 30.08z m277.376 119.488a30.08 30.08 0 0 1-21.312-51.52l46.08-47.168a30.08 30.08 0 1 1 42.688 42.688l-46.08 47.232a30.016 30.016 0 0 1-21.376 8.768z m-554.752 0a30.08 30.08 0 0 1-21.312-8.768l-51.2-50.944a30.08 30.08 0 1 1 42.688-42.688l51.2 50.944a30.08 30.08 0 0 1-21.376 51.456zM160.192 570.432h-65.92a30.208 30.208 0 1 1 0-60.48h65.92a30.208 30.208 0 1 1 0 60.48z m787.264 0h-62.08a30.208 30.208 0 1 1 0-60.48h62.08a30.208 30.208 0 1 1 0 60.48z" p-id="8111"></path><path d="M523.392 739.2a30.208 30.208 0 0 1-30.272-30.272V625.28a30.208 30.208 0 1 1 60.48 0v83.584a30.336 30.336 0 0 1-30.208 30.272z" p-id="8112"></path></svg>