<svg t="1706584426603" class="icon" viewBox="0 0 1024 1024" version="1.1" xmlns="http://www.w3.org/2000/svg" p-id="22888" width="200" height="200"><path d="M504.861628 16.465334c-278.013424 0-503.355523 225.342099-503.355523 503.355523 0 278.007376 225.341091 503.349475 503.355523 503.349475 278.007376 0 503.349475-225.342099 503.349475-503.349475C1008.211103 241.807433 782.870012 16.465334 504.861628 16.465334L504.861628 16.465334zM504.861628 987.21435c-257.715286 0-467.402566-209.685263-467.402566-467.393493 0-257.715286 209.68728-467.402566 467.402566-467.402566 257.708229 0 467.394501 209.68728 467.394501 467.402566C972.256129 777.529086 762.569857 987.21435 504.861628 987.21435L504.861628 987.21435zM504.861628 987.21435" fill="#8B8B8B" p-id="22889"></path><path d="M308.238345 326.535401 232.200219 518.895419 570.664493 650.669502l125.270815-173.242368L308.238345 326.535401 308.238345 326.535401 308.238345 326.535401zM738.427825 545.068777l-38.609307 97.717365 63.974167 67.168843 67.583173-170.954984L738.427825 545.068777 738.427825 545.068777 738.427825 545.068777zM691.893826 514.638204l-79.072514 110.135168 67.719267 26.36893 48.268943-122.155779L691.893826 514.638204 691.893826 514.638204 691.893826 514.638204zM280.094147 589.137966l44.621629 17.540979-17.521825 38.157677-81.27925 0 0 34.451894 104.122847 0 0-1.144196 27.002018-58.77236 49.055263 19.236607 15.196133-38.118361-126.019835-49.469593L280.094147 589.137966 280.094147 589.137966 280.094147 589.137966zM280.094147 589.137966" fill="#8B8B8B" p-id="22890"></path></svg>
