<svg t="1694244229051" class="icon" viewBox="0 0 1024 1024" version="1.1" xmlns="http://www.w3.org/2000/svg" p-id="32842" width="200" height="200"><path d="M885.76 836.608l-210.432-102.4c2.048-0.512 4.608-1.024 6.656-1.536 2.048-0.512 4.096-1.536 6.144-2.56 2.048-1.024 4.096-2.048 6.144-3.584 2.048-1.024 4.096-2.56 5.632-4.096L911.36 824.32l-6.144 4.608c-2.048 1.536-4.096 2.56-6.144 3.584-2.048 1.024-4.608 2.048-6.656 2.56-2.048 0.512-4.608 1.536-6.656 1.536" fill="#224365" p-id="32843"></path><path d="M911.36 824.32l-211.456-101.376c0.512-0.512 1.536-1.024 2.048-1.536 0.512-0.512 1.024-1.024 2.048-1.536 0.512-0.512 1.024-1.024 2.048-1.536l1.536-1.536 211.456 100.864c-0.512 0.512-1.024 1.536-2.048 2.048l-2.048 2.048c-0.512 0.512-1.536 1.024-2.048 1.536-0.512 0-1.024 0.512-1.536 1.024" fill="#214162" p-id="32844"></path><path d="M919.04 817.152l-211.456-100.864 1.536-1.536 1.536-1.536 1.536-1.536 1.536-1.536 211.968 100.352-1.536 1.536-1.536 1.536-1.536 1.536-2.048 2.048" fill="#203F5F" p-id="32845"></path><path d="M924.672 810.496l-211.968-100.352c0.512-0.512 1.024-1.024 1.024-1.536s1.024-1.024 1.024-1.536c0.512-0.512 0.512-1.024 1.024-1.536s0.512-1.024 1.024-1.536l211.968 99.84c-0.512 0.512-0.512 1.024-1.024 2.048s-0.512 1.024-1.024 1.536-1.024 1.024-1.024 1.536c0 0-0.512 0.512-1.024 1.536" fill="#1F3D5C" p-id="32846"></path><path d="M929.28 803.328l-211.968-99.84c0.512-0.512 0.512-1.024 1.024-1.536 0.512-0.512 0.512-1.024 1.024-1.536 0.512-0.512 0.512-1.024 1.024-1.536 0.512-0.512 0.512-1.024 1.024-1.536l211.968 99.84c-0.512 0.512-0.512 1.024-1.024 2.048l-1.024 2.048-1.024 2.048c-0.512 1.024-0.512-0.512-1.024 0" fill="#1E3B59" p-id="32847"></path><path d="M933.376 795.648L721.408 696.32c0.512-0.512 0.512-1.024 1.024-2.048 0.512-0.512 0.512-1.536 1.024-2.048s0.512-1.536 1.024-2.048c0.512-0.512 0.512-1.536 0.512-2.048l212.48 99.328c0 0.512-0.512 1.536-1.024 2.048-0.512 0.512-0.512 1.536-1.024 2.048-0.512 0.512-0.512 1.536-1.024 2.048s-0.512 1.536-1.024 2.048" fill="#1D3956" p-id="32848"></path><path d="M936.96 787.456l-212.48-99.328c0.512-1.024 0.512-1.536 1.024-2.56s0.512-1.536 0.512-2.56 0.512-1.536 0.512-2.56 0.512-1.536 0.512-2.56l212.48 98.816c0 1.024-0.512 1.536-0.512 2.56s-0.512 1.536-0.512 2.56-0.512 1.536-1.024 2.56c0 1.536-0.512 2.56-0.512 3.072" fill="#1C3753" p-id="32849"></path><path d="M940.032 777.216L727.04 678.912c0-1.024 0.512-2.048 0.512-3.072 0-1.024 0.512-2.048 0.512-3.072 0-1.024 0-2.048 0.512-3.072v-3.072l212.992 97.792v3.584c0 1.024 0 2.048-0.512 3.584 0 1.024-0.512 2.048-0.512 3.072 0 0.512-0.512 1.536-0.512 2.56" fill="#1B3550" p-id="32850"></path><path d="M941.568 763.904l-212.48-97.792 12.8-303.104 217.088 81.92z" fill="#1A334D" p-id="32851"></path><path d="M958.976 444.928l-217.088-81.92 5.12-123.904 219.136 75.264z" fill="#1A334D" p-id="32852"></path><path d="M966.144 314.368l-219.136-75.264c0.512-6.656-0.512-13.312-1.536-18.944-1.536-6.144-3.584-11.264-6.656-16.384-3.072-4.608-6.144-8.704-10.24-12.288s-8.704-6.144-13.824-7.68l218.624 72.704c5.12 1.536 9.728 4.608 13.824 7.68 4.096 3.584 7.68 7.68 10.752 12.8 3.072 5.12 5.12 10.752 6.656 16.896 1.024 6.656 1.536 13.312 1.536 20.48" fill="#1B3550" p-id="32853"></path><path d="M315.392 946.176l-191.488-115.2 551.424-96.256 210.432 101.888z" fill="#20405F" p-id="32854"></path><path d="M712.704 793.6L506.88 691.2c-4.096-2.048-7.68-4.608-11.264-7.168-3.584-2.56-6.656-6.144-9.728-9.728-3.072-3.584-5.632-7.68-7.68-11.776-2.048-4.096-4.096-8.704-5.632-13.824l205.312 100.864c1.536 5.12 3.584 9.728 5.632 14.336 2.048 4.608 5.12 8.704 7.68 12.288 3.072 3.584 6.144 7.168 9.728 9.728 3.584 3.072 7.68 5.632 11.776 7.68" fill="#1B3550" p-id="32855"></path><path d="M918.528 187.904l-219.136-69.12c2.048 0 3.584-0.512 5.12-0.512h5.12c1.536 0 3.584 0 5.12 0.512 1.536 0 3.584 0.512 5.12 0.512l219.648 69.12c-1.536 0-3.584-0.512-5.12-0.512h-10.752c-1.536-0.512-3.072 0-5.12 0M940.032 188.416l-219.648-69.12c1.024 0 2.048 0.512 3.072 0.512 1.024 0 2.048 0.512 3.072 0.512 1.024 0 2.048 0.512 3.072 1.024 1.024 0.512 2.048 0.512 3.072 1.024l220.16 69.12c-1.024-0.512-2.048-0.512-3.072-1.024-1.024-0.512-2.048-0.512-3.072-1.024-1.024 0-2.048-0.512-3.072-0.512-1.536-0.512-2.56-0.512-3.584-0.512" fill="#144F7F" p-id="32856"></path><path d="M683.008 674.304L476.16 577.536c0-0.512 0.512-1.024 0.512-1.536 0-0.512 0.512-1.024 1.024-1.536 0.512-0.512 0.512-1.024 1.024-1.536 0.512-0.512 0.512-1.024 1.024-1.536l206.848 96.256c-0.512 0.512-0.512 1.024-1.024 2.048l-1.024 2.048c-0.512 0.512-0.512 1.024-1.024 2.048s-0.512 0-0.512 0.512" fill="#1D3956" p-id="32857"></path><path d="M686.08 666.624l-206.848-96.256c0.512-1.024 1.024-2.048 1.536-2.56s1.024-2.048 1.536-2.56c0.512-1.024 1.024-2.048 1.536-2.56s1.024-1.536 1.536-2.56l206.848 95.744-1.536 3.072-1.536 3.072-1.536 3.072c-0.512-0.512-1.024 0.512-1.536 1.536" fill="#1E3B59" p-id="32858"></path><path d="M692.736 655.36l-206.848-95.744c0.512-1.024 1.024-1.536 1.536-2.56 0.512-1.024 1.024-1.536 1.536-2.56 0.512-1.024 1.024-1.536 2.048-2.56 0.512-1.024 1.024-1.536 2.048-2.56l207.36 94.72c-0.512 1.024-1.536 1.536-2.048 2.56-0.512 1.024-1.024 1.536-2.048 2.56-0.512 1.024-1.024 2.048-2.048 2.56-0.512 1.536-1.024 2.56-1.536 3.584" fill="#1F3D5C" p-id="32859"></path><path d="M699.904 644.096l-207.36-94.72c0.512-1.024 1.536-1.536 2.048-2.56 0.512-1.024 1.536-1.536 2.048-2.56 0.512-1.024 1.536-1.536 2.048-2.56 0.512-1.024 1.536-1.536 2.048-2.56l207.872 94.208-2.56 2.56c-1.024 1.024-1.536 1.536-2.048 2.56-0.512 1.024-1.536 1.536-2.048 2.56-0.512 1.536-1.024 2.56-2.048 3.072" fill="#203F5F" p-id="32860"></path><path d="M709.12 633.856l-207.872-94.208 2.56-2.56c1.024-1.024 2.048-1.536 3.072-2.56 1.024-1.024 2.048-1.536 3.072-2.56 1.024-1.024 2.048-1.536 3.072-2.56l208.384 93.696c-1.024 1.024-2.048 1.536-3.072 2.56-1.024 1.024-2.048 1.536-3.072 2.56-1.024 1.024-2.048 2.048-3.072 2.56l-3.072 3.072" fill="#214162" p-id="32861"></path><path d="M720.896 622.592l-208.384-93.696 9.216-6.144c3.072-2.048 6.144-3.584 9.728-5.12 3.072-1.536 6.656-2.56 10.24-3.584 3.584-1.024 6.656-1.536 10.24-2.048 1.536 0 2.56-0.512 4.096-0.512H568.32l210.432 92.16h-8.192c-1.536 0-2.56 0-4.096 0.512-1.536 0-3.072 0.512-4.096 0.512-3.584 0.512-7.168 1.536-10.752 2.56-3.584 1.024-7.168 2.56-10.24 4.096-3.584 1.536-6.656 3.584-9.728 5.12-4.096 1.536-7.68 4.096-10.752 6.144" fill="#224365" p-id="32862"></path><path d="M778.24 603.648l-210.432-92.16c1.024 0 2.048 0 3.072 0.512 1.024 0 2.048 0.512 3.072 0.512 1.024 0 2.048 0.512 3.072 0.512 1.024 0 2.048 0.512 3.072 1.024l210.432 92.16c-1.024-0.512-2.048-0.512-3.072-1.024-1.024 0-2.048-0.512-3.072-0.512-1.024 0-2.048-0.512-3.072-0.512-1.024-0.512-2.048-0.512-3.072-0.512" fill="#214162" p-id="32863"></path><path d="M791.04 606.208l-210.432-92.16c0.512 0 1.024 0.512 1.536 0.512 0.512 0 1.024 0.512 1.536 0.512 0.512 0 1.024 0.512 1.536 0.512 0.512 0 1.024 0.512 1.536 0.512l210.944 92.16c-0.512 0-1.024-0.512-1.536-0.512-0.512 0-1.024-0.512-1.536-0.512-0.512 0-1.024-0.512-1.536-0.512-1.024-0.512-1.536-0.512-2.048-0.512" fill="#203F5F" p-id="32864"></path><path d="M773.12 338.944l-212.992-78.336c1.536 0 2.56-0.512 4.096-0.512h8.192c1.536 0 2.56 0 4.096 0.512l213.504 78.336c-1.536 0-2.56-0.512-4.096-0.512h-8.192c-1.536 0-3.072 0.512-4.608 0.512" fill="#224365" p-id="32865"></path><path d="M790.016 338.944l-213.504-78.336c1.024 0 2.048 0.512 3.072 0.512 1.024 0 2.048 0.512 3.072 0.512 1.024 0 2.048 0.512 3.072 1.024 1.024 0.512 2.048 0.512 3.072 1.024l214.016 78.336c-1.024-0.512-2.048-0.512-3.072-1.024-1.024-0.512-2.048-0.512-3.072-1.024-1.024 0-2.048-0.512-3.072-0.512-1.536-0.512-2.56-0.512-3.584-0.512" fill="#214162" p-id="32866"></path><path d="M803.328 341.504l-214.016-78.336h2.048l214.016 78.336h-1.024c-0.512 0.512-0.512 0.512-1.024 0 0 0.512 0 0 0 0" fill="#203F5F" p-id="32867"></path><path d="M728.576 534.528L519.168 445.44c-4.096-1.536-8.192-4.096-11.776-6.656-3.584-2.56-7.168-5.632-10.24-9.216-3.072-3.584-6.144-7.168-8.704-11.264-2.56-4.096-4.608-8.704-6.656-13.312l208.896 87.04c2.048 5.12 4.096 9.728 6.656 14.336 2.56 4.096 5.632 8.192 8.704 11.776 3.072 3.584 6.656 6.656 10.752 9.728 3.584 2.56 7.68 4.608 11.776 6.656" fill="#1B3550" p-id="32868"></path><path d="M807.424 200.192l-215.552-70.656 107.52-10.752 219.136 69.12z" fill="#427AA8" p-id="32869"></path><path d="M690.688 414.72L481.28 331.776v-0.512-0.512-0.512-0.512l209.92 82.944v1.024c0 0.512 0 1.024-0.512 1.024 0.512 0 0.512 0 0 0" fill="#1A5B87" p-id="32870"></path><path d="M691.2 413.696L481.28 330.752c0.512-1.024 1.024-2.048 1.024-3.072 0.512-1.024 1.024-2.048 1.024-3.072l1.536-3.072 1.536-3.072 209.92 82.432-1.536 3.072-1.536 3.072c-0.512 1.024-1.024 2.048-1.536 3.584s0 1.536-0.512 3.072M696.832 400.384l-209.92-82.432 1.536-3.072c0.512-1.024 1.024-2.048 1.536-2.56 0.512-1.024 1.024-2.048 1.536-2.56 0.512-1.024 1.024-2.048 1.536-2.56l210.432 81.92-1.536 3.072-1.536 3.072-1.536 3.072c-0.512 1.024-1.536 1.024-2.048 2.048M703.488 388.608l-210.432-81.92c0.512-1.024 1.024-1.536 1.536-2.56 0.512-1.024 1.024-1.536 1.536-2.56 0.512-1.024 1.024-1.536 2.048-2.56 0.512-1.024 1.024-1.536 2.048-2.56l210.944 80.896c-0.512 1.024-1.536 1.536-2.048 2.56-0.512 1.024-1.536 1.536-2.048 2.56-0.512 1.024-1.024 2.048-2.048 2.56-0.512 1.536-1.024 2.56-1.536 3.584" fill="#1A5B87" p-id="32871"></path><path d="M711.168 377.856L500.224 296.448c0.512-1.024 1.536-1.536 2.048-2.56 0.512-1.024 1.536-1.536 2.048-2.56 0.512-1.024 1.536-1.536 2.048-2.56 0.512-1.024 1.536-1.536 2.048-2.56l210.944 80.384-2.56 2.56-2.56 2.56c-0.512 1.024-1.536 1.536-2.048 2.56 0 1.536-0.512 2.56-1.024 3.584" fill="#1A5B87" p-id="32872"></path><path d="M719.872 367.104L508.928 286.72l2.56-2.56c1.024-1.024 2.048-1.536 3.072-2.56 1.024-1.024 2.048-1.536 3.072-2.56 1.024-1.024 2.048-1.536 3.072-2.56L732.16 356.352c-1.024 1.024-2.048 1.536-3.072 2.56-1.024 1.024-2.048 1.536-3.072 2.56-1.024 1.024-2.048 2.048-3.072 2.56l-3.072 3.072" fill="#1A5B87" p-id="32873"></path><path d="M732.16 356.352L520.704 276.48l9.216-6.144c3.072-2.048 6.656-3.584 9.728-4.608 3.072-1.536 6.656-2.56 10.24-3.584 3.584-1.024 7.168-1.536 10.752-2.048L773.12 338.944c-3.584 0.512-7.168 1.024-10.752 2.048-3.584 1.024-7.168 2.048-10.752 3.584-3.584 1.536-6.656 3.072-10.24 5.12-3.072 2.048-6.144 4.608-9.216 6.656" fill="#1A5B87" p-id="32874"></path><path d="M748.032 274.944L535.04 199.68l2.048-65.024 213.504 71.68zM677.376 750.08l-205.312-100.864-135.168-75.264 202.24 98.304z" fill="#1A334D" p-id="32875"></path><path d="M750.592 206.336l-214.016-71.68c0-7.168-0.512-13.824-2.048-19.968-1.536-6.144-4.096-11.776-7.168-16.896-3.072-5.12-7.168-9.216-11.264-12.8-4.608-3.584-9.216-6.144-14.848-8.192l213.504 68.608c5.632 1.536 10.752 4.608 15.36 8.192 4.608 3.584 8.192 8.192 11.776 13.824 3.072 5.12 5.632 11.264 7.168 17.92 1.536 6.656 2.048 13.824 1.536 20.992" fill="#1B3550" p-id="32876"></path><path d="M543.232 540.16L339.456 448.512 481.28 331.776 690.688 414.72z" fill="#144F7F" p-id="32877"></path><path d="M698.88 73.728L484.864 9.216c2.048 0 3.584-0.512 5.632-0.512h5.632c2.048 0 3.584 0 5.632 0.512 2.048 0 3.584 0.512 5.632 0.512L721.92 74.24c-2.048-0.512-3.584-0.512-5.632-0.512-2.048 0-3.584-0.512-5.632-0.512h-5.632c-2.56 0.512-4.608 0.512-6.144 0.512" fill="#224365" p-id="32878"></path><path d="M721.408 74.752L506.88 9.728c1.024 0 2.048 0.512 3.072 0.512 1.024 0 2.048 0.512 3.072 0.512 1.024 0 2.048 0.512 3.072 0.512 1.024 0.512 2.048 0.512 3.072 1.024l215.04 65.024c-1.024-0.512-2.048-0.512-3.072-1.024-1.024-0.512-2.048-0.512-3.072-0.512-1.024 0-2.048-0.512-3.072-0.512-1.536-0.512-2.56-0.512-3.584-0.512" fill="#214162" p-id="32879"></path><path d="M280.064 940.544l-190.464-115.712c0.512 0.512 1.024 0.512 1.536 1.024 0.512 0.512 1.024 0.512 1.536 1.024 0.512 0.512 1.024 0.512 1.536 0.512 0.512 0 1.024 0.512 1.536 0.512l190.464 115.712c-0.512 0-1.024-0.512-1.536-0.512-0.512 0-1.024-0.512-1.536-1.024-0.512-0.512-1.024-0.512-1.536-1.024-1.024 0-1.536 0-1.536-0.512" fill="#1F3D5C" p-id="32880"></path><path d="M286.208 943.616l-190.464-115.712c0.512 0 1.024 0.512 1.536 0.512 0.512 0 1.024 0.512 2.048 0.512 0.512 0 1.024 0.512 2.048 0.512 0.512 0 1.024 0.512 2.048 0.512l190.976 115.712c-0.512 0-1.536-0.512-2.048-0.512-0.512 0-1.024-0.512-2.048-0.512-0.512 0-1.024-0.512-2.048-0.512s-1.536 0-2.048-0.512" fill="#203F5F" p-id="32881"></path><path d="M293.888 946.176l-190.976-115.712c0.512 0 1.536 0.512 2.048 0.512 0.512 0 1.536 0.512 2.56 0.512s1.536 0 2.56 0.512h2.56L303.104 947.2h-5.12c-1.024 0-1.536 0-2.56-0.512 0 0-1.024-0.512-1.536-0.512" fill="#214162" p-id="32882"></path><path d="M303.104 947.2l-191.488-115.712H117.76c1.024 0 2.048 0 3.072-0.512 1.024 0 2.048-0.512 3.072-0.512l191.488 115.712c-1.024 0-2.048 0.512-3.072 0.512-1.024 0-2.048 0-3.072 0.512h-6.144" fill="#224365" p-id="32883"></path><path d="M425.472 711.68l-197.632-101.888c-6.144-3.072-12.288-7.68-17.408-12.288-5.12-5.12-9.728-10.752-13.312-17.408-3.584-6.656-6.656-13.824-8.192-21.504-2.048-7.68-3.072-16.384-2.56-25.088v-5.12c0-1.536 0-3.584 0.512-5.12 0-1.536 0.512-3.584 0.512-5.12 0.512-1.536 0.512-3.584 1.024-5.12l197.632 96.768c-0.512 2.048-0.512 3.584-1.024 5.632-0.512 2.048-0.512 3.584-0.512 5.632 0 2.048-0.512 3.584-0.512 5.632 0 2.048 0 3.584-0.512 5.632 0 9.216 0.512 18.432 2.56 26.624s4.608 15.872 8.704 23.04c3.584 6.656 8.192 12.8 13.312 18.432 5.12 3.584 10.752 7.68 17.408 11.264" fill="#1B3550" p-id="32884"></path><path d="M386.048 608.768L188.416 512c0.512-1.536 0.512-2.56 1.024-4.096 0.512-1.536 0.512-2.56 1.024-4.096 0.512-1.536 0.512-2.56 1.024-4.096 0.512-1.536 1.024-2.56 1.536-4.096l198.144 95.744c-0.512 1.536-1.024 2.56-1.536 4.096-0.512 1.536-1.024 2.56-1.024 4.096-0.512 1.536-0.512 2.56-1.024 4.096-1.024 2.56-1.536 4.096-1.536 5.12" fill="#1C3753" p-id="32885"></path><path d="M390.656 592.384L192.512 496.128c0.512-1.024 1.024-2.048 1.024-3.072s1.024-2.048 1.536-3.072l1.536-3.072 1.536-3.072L396.288 578.56l-1.536 3.072c-0.512 1.024-1.024 2.048-1.536 3.584s-1.024 2.048-1.536 3.584-0.512 2.048-1.024 3.584" fill="#1D3956" p-id="32886"></path><path d="M396.288 578.56L198.144 483.84l1.536-3.072 1.536-3.072c0.512-1.024 1.024-2.048 1.536-2.56s1.024-2.048 1.536-2.56l198.656 94.208-1.536 3.072-1.536 3.072-1.536 3.072c-1.024 0.512-1.536 1.536-2.048 2.56" fill="#1E3B59" p-id="32887"></path><path d="M402.944 566.784L204.288 472.576c0.512-1.024 1.024-2.048 1.536-2.56 0.512-1.024 1.024-1.536 2.048-2.56 0.512-1.024 1.024-1.536 2.048-2.56 0.512-1.024 1.536-1.536 2.048-2.56l199.168 93.696c-0.512 1.024-1.536 2.048-2.048 2.56-0.512 1.024-1.536 2.048-2.048 2.56-0.512 1.024-1.536 2.048-2.048 3.072-1.024 0.512-1.536 1.536-2.048 2.56" fill="#1F3D5C" p-id="32888"></path><path d="M410.624 555.52L211.968 461.824c0.512-1.024 1.536-2.048 2.048-2.56 0.512-1.024 1.536-1.536 2.048-2.56 0.512-1.024 1.536-1.536 2.56-2.56l2.56-2.56 199.68 93.184-2.56 2.56-2.56 2.56c-1.024 1.024-1.536 2.048-2.56 2.56-1.024 1.024-1.536 2.048-2.56 3.072" fill="#203F5F" p-id="32889"></path><path d="M420.352 544.768l-199.68-93.184 3.072-3.072c1.024-1.024 2.048-2.048 3.072-2.56 1.024-1.024 2.048-1.536 3.072-2.56 1.024-1.024 2.048-1.536 3.072-2.56l200.192 92.16c-1.024 1.024-2.048 1.536-3.584 2.56-1.024 1.024-2.048 2.048-3.072 2.56l-3.072 3.072c-1.024 1.536-2.048 2.56-3.072 3.584" fill="#214162" p-id="32890"></path><path d="M433.152 532.992l-200.192-92.16c3.072-2.56 6.656-4.608 9.728-6.144 3.584-2.048 6.656-3.584 10.24-5.12 3.584-1.536 7.168-2.56 10.752-3.584 3.584-1.024 7.168-1.536 11.264-2.048 1.536 0 3.072-0.512 4.096-0.512h8.192c1.536 0 2.56 0 4.096 0.512l202.24 90.624h-13.312c-1.536 0-3.072 0.512-4.608 0.512-4.096 0.512-7.68 1.536-11.776 2.56-3.584 1.024-7.68 2.56-11.264 4.096-3.584 1.536-7.168 3.584-10.752 5.632-2.048 1.024-5.12 3.584-8.704 5.632" fill="#224365" p-id="32891"></path><path d="M494.592 513.536L292.352 423.424c1.024 0 2.048 0 3.584 0.512 1.024 0 2.048 0.512 3.584 0.512 1.024 0 2.048 0.512 3.072 0.512 1.024 0.512 2.048 0.512 3.072 1.024l202.752 90.624c-1.024-0.512-2.048-0.512-3.584-1.024-1.024-0.512-2.048-0.512-3.584-0.512-1.024 0-2.56-0.512-3.584-0.512-0.512-0.512-1.536-0.512-3.072-1.024" fill="#214162" p-id="32892"></path><path d="M508.416 516.608L305.664 425.984c0.512 0 1.536 0.512 2.048 0.512 0.512 0 1.536 0.512 2.048 0.512 0.512 0 1.536 0.512 2.048 1.024 0.512 0.512 1.536 0.512 2.048 1.024l202.752 90.624c-0.512-0.512-1.536-0.512-2.048-1.024-0.512-0.512-1.536-0.512-2.048-1.024-0.512 0-1.536-0.512-2.048-0.512-0.512-0.512-1.024-0.512-2.048-0.512" fill="#203F5F" p-id="32893"></path><path d="M240.64 1000.96l-188.416-119.296c-7.168-4.608-13.824-10.24-19.456-16.384-5.632-6.144-10.752-13.824-14.848-21.504-4.096-8.192-7.168-16.896-9.728-26.112-2.048-9.216-3.584-19.456-3.072-29.696l187.904 114.688c0 11.264 1.024 21.504 3.072 31.232 2.048 9.728 5.632 18.944 9.728 27.136 4.096 8.192 9.216 15.872 15.36 22.528 5.12 6.656 11.776 12.288 19.456 17.408" fill="#144F7F" p-id="32894"></path><path d="M918.528 187.904c14.848-1.536 29.184 0.512 41.984 5.632 12.8 5.12 23.552 13.824 32.768 24.576 9.216 10.752 15.872 24.064 20.48 39.424 4.608 14.848 6.656 31.744 5.632 49.664l-25.088 446.976c-1.024 17.408-4.608 34.304-10.752 50.176-6.144 15.872-14.336 30.72-24.576 44.032-10.24 13.312-22.016 24.576-34.816 33.28-12.8 8.704-27.136 14.848-41.472 17.92l-568.32 113.664c-16.896 3.584-32.768 3.072-47.616-1.024-14.848-4.096-27.648-11.264-38.912-20.992-11.264-10.24-19.968-23.04-26.112-37.888-6.144-14.848-9.216-32.256-9.216-51.2l9.216-634.88c0.512-19.968 4.096-39.424 11.264-57.856 6.656-18.432 16.896-34.816 28.672-49.664 11.776-14.336 26.112-26.624 41.472-35.328 15.36-8.704 32.256-14.848 50.176-16.384l365.568-34.304c15.872-1.536 31.232 1.024 44.544 6.656 13.312 5.632 25.6 14.848 35.328 26.112 9.728 11.264 17.408 25.6 22.528 41.472 5.12 15.872 7.168 33.28 6.656 52.224l110.592-12.288z m40.448 257.024l7.168-130.56c0.512-9.216-0.512-17.408-3.072-25.088-2.56-7.68-5.632-14.336-10.24-19.456-4.608-5.632-10.24-9.728-16.384-12.288-6.144-2.56-13.312-3.584-20.992-2.56l-167.424 19.968 3.072-68.096c0.512-9.216-1.024-18.432-3.584-26.112-2.56-7.68-6.656-14.848-11.264-20.48-5.12-5.632-10.752-10.24-17.92-12.8-6.656-2.56-14.336-4.096-22.528-3.072l-364.544 37.376c-8.704 1.024-17.408 3.584-25.088 8.192-7.68 4.608-14.848 10.752-20.48 17.92-6.144 7.168-10.752 15.36-14.336 24.576-3.584 9.216-5.632 18.944-5.632 28.672l-10.752 629.76c0 9.216 1.536 17.92 4.608 25.6 3.072 7.68 7.168 13.824 12.8 18.944s11.776 8.704 19.456 10.752c7.168 2.048 15.36 2.56 23.552 0.512L885.76 836.608c7.168-1.536 14.336-4.608 20.992-8.704 6.656-4.608 12.288-10.24 17.408-16.384 5.12-6.656 9.216-13.824 12.288-22.016 3.072-8.192 5.12-16.384 5.632-25.088l16.896-319.488" fill="#336699" p-id="32895"></path><path d="M773.12 338.944c11.776-1.536 22.528 0 32.256 3.584 9.728 3.584 18.432 9.728 25.6 17.92s12.8 17.92 16.384 29.184c3.584 11.264 5.12 24.064 4.608 37.888-0.512 13.824-3.584 27.136-8.192 39.424-4.608 12.288-11.264 24.064-18.944 33.792-7.68 10.24-17.408 18.432-27.136 25.088-10.24 6.656-21.504 10.752-32.768 12.8-8.192 1.536-16.384 1.024-24.064-0.512-7.68-1.536-14.848-4.608-20.992-8.704-6.656-4.096-12.288-9.216-16.896-15.872-5.12-6.144-9.216-13.824-11.776-22.016l-127.488 108.544V604.16l120.32 69.12c3.584-9.216 8.192-17.408 13.824-25.6 5.632-7.68 11.776-14.848 18.432-20.992 6.656-6.144 14.336-11.264 22.016-15.36 7.68-4.096 15.872-6.656 24.576-8.192 11.776-2.048 22.528-1.024 32.256 2.56 9.728 3.584 18.432 9.216 25.088 16.384 7.168 7.68 12.288 16.896 15.872 28.16 3.584 10.752 5.12 23.04 4.608 36.352-0.512 13.312-3.584 26.112-8.192 38.4-4.608 12.288-11.264 23.552-18.944 33.792s-16.896 18.432-27.136 25.088c-10.24 6.656-20.992 11.264-32.256 13.312-8.704 1.536-17.408 1.536-25.088 0-7.68-1.536-15.36-4.608-22.016-8.704-6.656-4.096-12.288-9.728-16.896-16.896-4.608-6.656-8.704-14.336-11.264-23.04L540.16 670.72c-4.096 6.144-8.704 11.776-13.824 16.384-5.12 5.12-10.24 9.728-16.384 13.824-5.632 4.096-11.776 7.168-17.92 10.24-6.144 2.56-12.8 4.608-19.456 5.632-12.288 2.048-24.064 1.024-34.816-2.048-10.752-3.072-19.968-9.216-28.16-16.896-8.192-7.68-14.336-17.92-18.944-29.184-4.096-11.776-6.656-24.576-6.144-38.912 0.512-14.336 3.072-28.16 8.192-41.472 5.12-13.312 11.776-25.088 20.48-35.84 8.704-10.752 18.432-19.456 29.696-26.624 11.264-6.656 23.04-11.264 35.328-13.312 6.656-1.024 13.312-1.024 19.456-0.512 6.144 0.512 12.288 2.048 17.92 4.608 5.632 2.048 10.752 5.12 15.872 8.704 4.608 3.584 9.216 7.68 13.312 12.8L690.688 414.72c3.584-10.24 8.192-19.456 13.824-28.16 5.632-8.704 11.776-16.384 18.944-23.04 7.168-6.656 14.848-12.288 23.552-16.384 8.192-4.096 17.408-7.168 26.112-8.192z" fill="#336699" p-id="32896"></path><path d="M332.8 108.032L132.096 38.4l352.768-29.184 214.016 64.512zM192.512 902.144L4.608 787.456l2.56-600.064 194.048 79.872z" fill="#427AA8" p-id="32897"></path><path d="M201.216 267.264L7.168 187.392v-7.168c0-2.56 0.512-4.608 0.512-7.168 0-2.56 0.512-4.608 1.024-7.168 0.512-2.56 0.512-4.608 1.024-7.168l194.56 78.336-1.536 7.68c-0.512 2.56-0.512 5.12-1.024 7.68s-0.512 5.12-0.512 7.68c0.512 2.048 0 4.608 0 7.168M204.8 236.544L10.24 158.208c0.512-2.048 0.512-3.584 1.024-5.632 0.512-2.048 1.024-3.584 1.536-5.632 0.512-2.048 1.024-3.584 1.536-5.632 0.512-1.024 1.024-3.072 1.536-4.608l195.072 76.8c-0.512 2.048-1.536 3.584-2.048 5.632-0.512 2.048-1.024 4.096-1.536 5.632-0.512 2.048-1.024 4.096-1.536 5.632-0.512 2.048-0.512 4.096-1.024 6.144M210.944 212.992l-195.072-76.8 1.536-4.608 1.536-4.608c1.024-1.024 1.536-2.56 2.56-4.096 0.512-1.536 1.536-3.072 2.048-4.096L219.136 194.56c-0.512 1.536-1.536 3.072-2.048 4.608-0.512 1.536-1.536 3.072-2.048 4.608s-1.536 3.072-2.048 4.608c-0.512 1.536-1.536 3.072-2.048 4.608M219.136 194.56L23.552 118.784c0.512-1.536 1.536-2.56 2.048-4.096 0.512-1.536 1.536-2.56 2.048-4.096 0.512-1.536 1.536-2.56 2.048-4.096 1.024-1.536 1.536-2.56 2.56-3.584l196.096 74.752c-1.024 1.536-1.536 2.56-2.56 4.096-1.024 1.536-1.536 2.56-2.56 4.096-1.024 1.536-1.536 2.56-2.048 4.096-0.512 1.536-1.536 3.072-2.048 4.608" fill="#5B90BC" p-id="32898"></path><path d="M228.352 177.664L32.256 102.912c1.024-1.024 1.536-2.56 2.56-3.584 1.024-1.024 1.536-2.56 2.56-3.584 1.024-1.024 1.536-2.56 2.56-3.584 1.024-1.024 2.048-2.56 2.56-3.584l196.608 73.728c-1.024 1.024-2.048 2.56-3.072 3.584-1.024 1.024-2.048 2.56-3.072 4.096-1.024 1.536-2.048 2.56-2.56 4.096-0.512 1.024-1.024 2.048-2.048 3.584M239.616 162.304L42.496 88.576c1.024-1.024 2.048-2.56 3.072-3.584 1.024-1.024 2.048-2.56 3.072-3.584 1.024-1.024 2.048-2.56 3.072-3.584l3.584-3.584 197.632 72.704-3.584 3.584-3.584 3.584c-1.024 1.024-2.048 2.56-3.584 3.584-0.512 1.536-1.536 3.072-2.56 4.608M252.928 146.944L55.808 74.24c1.536-1.536 2.56-2.56 4.096-3.584 1.536-1.024 3.072-2.56 4.096-3.584 1.536-1.024 3.072-2.56 4.608-3.584l4.608-3.072 198.144 71.68c-1.536 1.024-3.072 2.56-4.608 3.584-1.536 1.024-3.072 2.56-4.608 3.584-1.536 1.024-3.072 2.56-4.608 4.096-1.536 1.024-3.072 2.048-4.608 3.584M271.36 131.584l-198.144-71.68c4.608-3.072 9.216-5.632 13.824-8.192 4.608-2.56 9.728-4.608 14.336-6.656 5.12-2.048 10.24-3.584 15.36-4.608 5.12-1.024 10.24-2.048 15.872-2.56L332.8 108.032c-5.632 0.512-10.752 1.536-16.384 2.56-5.12 1.536-10.752 3.072-15.872 5.12s-10.24 4.608-15.36 7.168c-4.608 2.56-9.216 5.632-13.824 8.704" fill="#5B90BC" p-id="32899"></path></svg>
