<svg t="1694589946815" class="icon" viewBox="0 0 1204 1024" version="1.1" xmlns="http://www.w3.org/2000/svg" p-id="23221" width="200" height="200"><path d="M301.176471 421.647059v421.647059H0v-120.470589a301.176471 301.176471 0 0 1 301.176471-301.17647zM240.941176 542.117647a180.705882 180.705882 0 0 0-180.705882 180.705882v60.235295h180.705882V542.117647z" fill="#53DBA6" p-id="23222"></path><path d="M0 783.058824h1084.235294v60.235294H0zM301.176471 903.529412h180.705882v60.235294H301.176471zM542.117647 903.529412h180.705882v60.235294H542.117647zM1024 903.529412h180.705882v60.235294h-180.705882z" fill="#53DBA6" p-id="23223"></path><path d="M417.731765 542.117647v421.647059h-52.404706V542.117647zM658.672941 542.117647v421.647059h-52.404706V542.117647z" fill="#53DBA6" p-id="23224"></path><path d="M1066.767059 148.600471l-392.854588 665.057882-45.357177-25.6 392.854588-665.057882zM1092.909176 281.6l-314.247529 532.058353-45.357176-25.6L1047.491765 256zM1140.555294 783.058824v180.705882h-52.404706v-180.705882z" fill="#53DBA6" p-id="23225"></path><path d="M1084.235294 0v843.294118h-120.470588V0z" fill="#53DBA6" p-id="23226"></path><path d="M90.352941 933.647059m-90.352941 0a90.352941 90.352941 0 1 0 180.705882 0 90.352941 90.352941 0 1 0-180.705882 0Z" fill="#53DBA6" p-id="23227"></path><path d="M873.411765 933.647059m-90.352941 0a90.352941 90.352941 0 1 0 180.705882 0 90.352941 90.352941 0 1 0-180.705882 0Z" fill="#53DBA6" p-id="23228"></path></svg>
