<svg t="1706767655232" class="icon" viewBox="0 0 1024 1024" version="1.1" xmlns="http://www.w3.org/2000/svg" p-id="31320" width="200" height="200"><path d="M680.491886 250.002286v-24.663772a29.257143 29.257143 0 0 1 29.257143-29.257143h88.005485a29.257143 29.257143 0 0 1 29.257143 29.257143v169.764572l85.723429 84.904228a29.257143 29.257143 0 0 1 0 41.5744l-85.723429 84.918857V892.342857a29.257143 29.257143 0 0 1-29.257143 29.257143H240.874057a29.257143 29.257143 0 0 1-29.257143-29.257143V606.500571l-85.723428-84.918857a29.257143 29.257143 0 0 1 0-41.5744L498.717257 110.767543a29.257143 29.257143 0 0 1 41.1648 0l140.580572 139.220114zM408.897829 849.627429L628.589714 564.516571a29.257143 29.257143 0 0 0-23.171657-47.118628h-76.4928l58.368-135.3728a29.257143 29.257143 0 0 0-26.887314-40.842972h-52.238629a29.257143 29.257143 0 0 0-26.916571 17.773715L390.158629 572.562286a29.257143 29.257143 0 0 0 26.916571 40.740571h67.072L408.897829 849.627429z" fill="#DBDBDF" p-id="31321"></path></svg>
