<svg t="1705456536356" class="icon" viewBox="0 0 1024 1024" version="1.1" xmlns="http://www.w3.org/2000/svg" p-id="11035" width="200" height="200"><path d="M897.22368 446.446592C895.0272 446.446592 892.786688 446.160896 890.564608 445.553664L746.604544 406.71744C741.357568 405.302272 736.939008 402.33984 733.677568 398.45888L546.226176 507.445248 740.31616 620.291072C742.247424 619.15648 744.34048 618.235904 746.604544 617.6256L890.564608 578.78016C904.249344 575.062016 918.336512 583.26528 921.99424 597.055488 925.663232 610.844672 917.541888 625.012736 903.84896 628.706304L802.039808 656.178176 893.188096 709.172224C901.376 713.934848 904.173568 724.467712 899.452928 732.71296 896.279552 738.240512 890.53184 741.327872 884.617216 741.327872 881.716224 741.327872 878.777344 740.589568 876.077056 739.022848L777.892864 681.93792 808.14592 795.629568C811.813888 809.419776 803.693568 823.58784 789.999616 827.280384 787.777536 827.886592 785.537024 828.173312 783.340544 828.173312 772.011008 828.173312 761.63584 820.558848 758.569984 809.007104L719.995904 664.04352C718.590976 658.761728 718.927872 653.428736 720.631808 648.645632L529.61792 537.587712 529.61792 763.502592C532.95104 764.758016 536.08448 766.712832 538.766336 769.41312L644.151296 875.532288C654.17728 885.620736 654.17728 901.984256 644.151296 912.079872 639.138816 917.128192 632.571904 919.653376 626.004992 919.653376 619.437056 919.653376 612.871168 917.128192 607.859712 912.079872L529.61792 833.294336 529.61792 943.024128C529.61792 952.539136 521.834496 960.256 512.236544 960.256 502.637568 960.256 494.854144 952.539136 494.854144 943.024128L494.854144 833.1264 416.451584 912.079872C411.440128 917.128192 404.873216 919.653376 398.306304 919.653376 391.739392 919.653376 385.17248 917.128192 380.158976 912.079872 370.134016 901.993472 370.134016 885.620736 380.158976 875.532288L485.536768 769.41312C488.26368 766.666752 491.457536 764.695552 494.854144 763.4432L494.854144 537.31328 303.369216 648.644608C305.074176 653.428736 305.412096 658.760704 304.007168 664.04352L265.44128 809.007104C262.376448 820.550656 251.998208 828.173312 240.669696 828.173312 238.472192 828.173312 236.232704 827.886592 234.0096 827.280384 220.316672 823.58784 212.195328 809.419776 215.86432 795.629568L246.111232 681.935872 148.225024 738.847744C145.533952 740.411392 142.584832 741.152768 139.684864 741.152768 133.77024 741.152768 128.023552 738.064384 124.849152 732.536832 120.127488 724.292608 122.92608 713.757696 131.115008 708.996096L221.961216 656.177152 120.16128 628.706304C106.467328 625.012736 98.347008 610.844672 102.014976 597.055488 105.68192 583.26528 119.77728 575.062016 133.445632 578.78016L277.397504 617.6256C279.660544 618.235904 281.754624 619.15648 283.684864 620.291072L477.773824 507.445248 290.323456 398.45888C287.06304 402.33984 282.64448 405.302272 277.397504 406.71744L133.445632 445.553664C131.222528 446.160896 128.985088 446.446592 126.78656 446.446592 115.457024 446.446592 105.081856 438.832128 102.014976 427.281408 98.347008 413.4912 106.467328 399.322112 120.16128 395.628544L233.064448 365.167616 135.175168 308.25472C126.988288 303.49312 124.188672 292.958208 128.909312 284.713984 133.63712 276.476928 144.072704 273.642496 152.285184 278.404096L243.13856 331.227136 215.86432 228.70528C212.195328 214.91712 220.316672 200.748032 234.0096 197.054464 247.712768 193.327104 261.782528 201.53856 265.44128 215.328768L304.007168 360.292352C304.613376 362.5728 304.868352 364.859392 304.858112 367.111168L494.854144 477.577216 494.854144 260.723712C491.457536 259.47136 488.26368 257.50016 485.536768 254.754816L380.158976 148.627456C370.134016 138.529792 370.134016 122.166272 380.158976 112.078848 390.18496 101.983232 406.426624 101.983232 416.451584 112.078848L494.854144 191.038464 494.854144 81.486848C494.854144 71.972864 502.637568 64.256 512.236544 64.256 521.834496 64.256 529.61792 71.972864 529.61792 81.486848L529.61792 190.870528 607.859712 112.078848C617.883648 101.983232 634.125312 101.983232 644.151296 112.078848 654.17728 122.166272 654.17728 138.539008 644.151296 148.627456L538.766336 254.754816C536.08448 257.45408 532.95104 259.407872 529.61792 260.66432L529.61792 477.302784 719.143936 367.110144C719.13472 364.858368 719.389696 362.5728 719.995904 360.292352L758.569984 215.328768C762.227712 201.53856 776.31488 193.327104 789.999616 197.054464 803.693568 200.748032 811.813888 214.91712 808.14592 228.70528L780.86656 331.224064 872.016896 278.227968C880.188416 273.456128 890.665984 276.301824 895.392768 284.537856 900.114432 292.783104 897.314816 303.315968 889.127936 308.078592L790.936576 365.167616 903.84896 395.628544C917.541888 399.322112 925.663232 413.4912 921.99424 427.281408 918.928384 438.823936 908.553216 446.446592 897.22368 446.446592Z" p-id="11036" fill="#ffffff"></path></svg>
