<svg t="1694589753436" class="icon" viewBox="0 0 1024 1024" version="1.1" xmlns="http://www.w3.org/2000/svg" p-id="18975" width="200" height="200"><path d="M412.218709 515.231289c12.925156 6.417067 25.827556 12.879644 38.729956 12.879644 19.387733 0 38.729956-6.462578 58.117689-19.342222L877.023687 167.480889l71.042845 77.277867L1012.624043 19.319467C1012.624043 12.879644 1006.161465 0 999.698887 0L767.273643 51.541333l71.042844 70.815289-367.957333 347.795911c-6.485333 6.417067-19.410489 6.417067-32.312889 0L50.678443 264.055467c-12.9024-6.439822-25.827556 0-32.290134 12.879644-12.879644 12.879644-6.417067 25.759289 6.462578 32.221867l387.367822 206.074311z m-180.747377-19.319467H70.04342c-25.8048 0-51.655111 25.736533-51.655111 51.518578v425.028267C18.388309 998.286222 44.23862 1024 70.04342 1024h161.427912c25.827556 0 51.632356-25.736533 51.632355-51.541333V547.4304c0-32.199111-19.364978-51.518578-51.655111-51.518578z m367.957333 109.454222H438.046265c-25.827556 0-51.632356 25.782044-51.632356 51.564089v315.528534c0 25.8048 25.8048 51.541333 51.632356 51.541333h161.3824c25.827556 0 51.655111-25.736533 51.655111-51.541333V656.952889c0-25.782044-25.827556-51.541333-51.655111-51.541333z" fill="#108EE9" p-id="18976"></path><path d="M959.330532 341.333333h-166.479645C766.226887 341.333333 739.557376 366.865067 739.557376 392.3968v580.562489C739.557376 998.491022 766.226887 1024 792.850887 1024h166.479645C986.000043 1024 1012.624043 998.513778 1012.624043 972.959289V392.3968C1012.624043 366.865067 992.599154 341.333333 959.330532 341.333333z" fill="#FFC539" p-id="18977"></path></svg>
