<svg t="1694592389317" class="icon" viewBox="0 0 1024 1024" version="1.1" xmlns="http://www.w3.org/2000/svg" p-id="25401" width="200" height="200"><path d="M823.296 943.104H210.944c-24.576 0-45.056-19.456-45.056-41.984V245.76c0-23.552 20.48-41.984 45.056-41.984h611.328c24.576 0 45.056 19.456 45.056 41.984v655.36c1.024 23.552-19.456 41.984-44.032 41.984z m-610.304-43.008h608.256V246.784H212.992v653.312z" fill="#5D50D8" p-id="25402"></path><path d="M736.256 254.976c-18.432-54.272-58.368-156.672-218.112-156.672-159.744 0-199.68 102.4-218.112 156.672-10.24 3.072-18.432 13.312-18.432 24.576 0 14.336 11.264 25.6 25.6 25.6s25.6-11.264 25.6-25.6c0-6.144-2.048-11.264-5.12-15.36 18.432-53.248 51.2-136.192 190.464-136.192 138.24 0 172.032 80.896 190.464 134.144-4.096 4.096-7.168 10.24-7.168 17.408 0 14.336 11.264 25.6 25.6 25.6s25.6-11.264 25.6-25.6c0-11.264-7.168-20.48-16.384-24.576zM358.4 788.48c-2.048 6.144 5.12 12.288 11.264 9.216l109.568-54.272L389.12 675.84l-30.72 112.64zM677.888 479.232c2.048-2.048 2.048-5.12 1.024-7.168-3.072-9.216-6.144-23.552-26.624-41.984-23.552-20.48-54.272-19.456-63.488-18.432-2.048 0-4.096 1.024-5.12 3.072l-38.912 51.2 92.16 68.608 40.96-55.296zM721.92 644.096l-106.496-79.872 14.336-19.456-92.16-68.608-14.336 19.456-106.496-79.872c-6.144-4.096-12.288-6.144-19.456-5.12-7.168 1.024-13.312 4.096-17.408 10.24l-71.68 93.184c-4.096 5.12-6.144 12.288-5.12 19.456 1.024 7.168 5.12 13.312 10.24 17.408L419.84 630.784l-25.6 33.792 93.184 69.632 25.6-33.792 104.448 78.848c5.12 4.096 10.24 5.12 16.384 5.12 8.192 0 16.384-4.096 21.504-10.24l71.68-93.184c8.192-11.264 6.144-28.672-5.12-36.864zM334.848 528.384l66.56-86.016 19.456 14.336-17.408 22.528c-3.072 4.096-2.048 9.216 2.048 12.288l6.144 4.096c4.096 3.072 9.216 2.048 12.288-2.048L440.32 471.04l21.504 16.384-16.384 20.48c-3.072 4.096-2.048 9.216 2.048 12.288l6.144 4.096c4.096 3.072 9.216 2.048 12.288-2.048l16.384-20.48 22.528 17.408-65.536 87.04-104.448-77.824z m297.984 223.232L531.456 675.84l64.512-87.04 20.48 15.36-16.384 21.504c-3.072 4.096-2.048 9.216 2.048 12.288l6.144 4.096c4.096 3.072 9.216 2.048 12.288-2.048l16.384-21.504 20.48 15.36-17.408 21.504c-3.072 4.096-2.048 9.216 2.048 12.288l6.144 4.096c4.096 3.072 9.216 2.048 12.288-2.048l16.384-21.504 22.528 17.408-66.56 86.016z" fill="#5D50D8" p-id="25403"></path></svg>
