<svg t="1694592807362" class="icon" viewBox="0 0 1024 1024" version="1.1" xmlns="http://www.w3.org/2000/svg" p-id="32860" width="200" height="200"><path d="M571.814 892.342c18.855 0 33.808 14.955 33.808 33.81 0 18.854-14.953 33.807-33.808 33.807h-370.59c-94.273 0.651-170.342-75.418-170.342-169.04V233.081c0-93.623 76.07-169.691 170.343-169.691h620.9c94.924 0 170.993 76.068 170.993 169.69V512c0 18.854-14.955 33.808-33.81 33.808S925.502 530.854 925.502 512V233.082c0-56.564-45.512-102.075-102.075-102.075H201.225c-56.565 0-102.076 45.511-102.076 102.075v557.186c0 56.564 45.511 102.074 102.076 102.074h370.59z" p-id="32861" fill="#f4ea2a"></path><path d="M761.804 762.194c-74.118 0-133.933-57.214-133.933-128.08-0.65-70.219 59.815-127.432 133.933-127.432s133.933 57.213 133.933 128.08c0 70.218-60.466 127.432-133.933 127.432z m0-190.496c-38.36 0-68.918 27.956-68.918 63.065s31.209 63.065 68.918 63.065 68.917-27.957 68.917-63.065-31.207-63.066-68.917-63.066z" p-id="32862" fill="#f4ea2a"></path><path d="M958.802 959.193c-18.205 0-32.508-14.304-32.508-32.51 0-83.87-72.818-152.136-161.89-152.136s-161.889 68.267-161.889 152.137c0 18.205-14.304 32.509-32.508 32.509s-32.507-14.304-32.507-32.51c0-119.628 102.074-217.151 226.904-217.151S991.31 807.055 991.31 926.684c0 18.205-14.304 32.509-32.508 32.509zM704.356 235.858c-18.205 0-32.507-14.304-32.507-32.508V100.625c0-18.205 14.302-32.508 32.507-32.508s32.508 14.304 32.508 32.508V203.35c0 18.204-14.304 32.508-32.508 32.508z m-391.396 0c-18.204 0-32.508-14.304-32.508-32.508V100.625c0-18.205 14.304-32.508 32.508-32.508s32.509 14.304 32.509 32.508V203.35c0 18.204-14.955 32.508-32.509 32.508zM34.133 338.408V270.79h956.384v67.616z m343.285 118.328v165.141c4.55 70.868-27.307 117.678-95.574 140.434-10.403 2.601-17.555-0.65-22.756-9.752-1.95-9.103 2.6-14.955 13.003-18.205 52.663-13.653 78.67-50.712 77.37-111.827V456.736c0-7.15 4.55-11.702 14.303-12.352 7.802 0.65 12.352 4.55 13.654 12.352z m-182.045-7.15h85.82c6.502 0.65 10.403 5.2 11.053 13.652-0.65 8.453-4.551 12.352-11.052 12.352h-32.508v94.924h25.356c6.502 0.65 10.403 5.201 11.052 13.653-0.65 8.453-4.55 12.354-11.052 12.354h-25.356v93.623c1.95-1.95 6.501-5.202 14.304-9.753 5.85-2.6 9.102-5.202 11.052-7.152 6.502-5.2 13.002-5.2 19.505 1.3 4.551 7.153 3.9 13.654-2.6 19.506-24.707 19.504-57.215 34.457-98.825 45.51-9.102 0.65-15.604-2.6-18.204-11.053-0.65-6.5 3.25-11.702 13.003-14.953 16.904-3.901 27.957-7.151 33.808-11.053V597.171h-22.756c-8.452 0-13.002-3.902-13.002-12.353s4.55-13.003 13.002-13.653h22.756V475.59h-25.356c-8.452 0-13.003-3.9-13.003-12.353 0.65-8.452 4.55-13.002 13.003-13.653z m207.4 2.6h95.574c6.501 0.65 10.402 5.2 11.052 13.653-0.65 8.452-4.551 12.352-11.052 12.352h-38.36v105.976h27.958c7.801 0.651 11.702 5.202 13.002 13.654-0.65 9.102-5.2 13.653-13.002 13.653h-27.958v115.728h42.262c7.8 0 11.7 4.552 13.002 13.653-0.65 9.103-5.202 14.304-13.002 14.955H384.567c-8.45-0.65-13.002-5.852-13.002-14.955s4.551-13.653 13.002-13.653h48.112V612.125h-31.207c-8.452 0-13.003-4.552-13.003-13.654 0-8.452 4.55-13.002 13.003-13.653h31.207V478.192h-29.906c-9.102 0-14.304-3.9-15.604-12.353 0.65-7.802 5.852-12.353 15.604-13.653z m-70.867 13.653c-0.65 33.158-2.6 64.366-4.551 93.622-2.6 30.558-6.502 56.565-11.053 78.67-3.9 9.102-9.753 13.654-18.204 12.352-8.452-1.95-11.053-7.801-8.452-18.204 4.551-22.105 7.801-46.16 9.752-71.517 2.6-24.707 4.55-55.914 5.851-93.623 0-7.152 4.552-11.703 13.003-12.353 8.453 0 13.003 3.9 13.653 11.053z" p-id="32863" fill="#f4ea2a"></path><path d="M274.692 770.113c-9.752 0-16.904-4.551-21.455-14.304l-0.65-1.95c-2.6-12.353 3.9-22.105 17.554-25.357 50.062-13.002 73.468-47.46 72.818-105.324V456.736c0-5.201 1.95-16.903 20.155-18.854h1.3c11.702 1.3 18.205 7.802 20.155 18.204 3.25-5.851 9.752-9.101 18.204-10.402h97.525c5.85 0.65 14.953 4.55 16.903 19.504v1.302c-1.95 16.252-13.003 18.203-17.554 18.203h-31.858v92.973h22.756c10.402 1.3 16.904 8.452 18.204 19.505v1.3c-1.95 17.555-14.304 19.504-18.855 19.504H468.44v102.726h35.76c5.2 0 17.554 1.95 18.854 19.505v1.3c-1.951 16.254-12.353 20.155-18.205 20.805H385.219c-11.703-1.3-18.205-9.102-18.205-21.456 0-13.002 7.152-20.154 19.505-20.154h41.611V618.626h-26.658c-8.452 0-14.955-3.9-17.554-10.402v13.653c5.2 73.468-28.608 122.88-100.125 146.936-3.25 0.65-6.501 1.3-9.102 1.3z m-9.752-19.505c3.25 5.852 7.801 7.152 14.953 5.852 65.666-22.106 95.574-65.666 91.022-133.933v-165.14c-0.65-2.6-1.3-5.201-7.801-6.502-7.802 0.651-7.802 3.901-7.802 5.851v167.091c1.3 63.715-26.656 103.375-82.57 117.68-7.802 1.949-8.453 5.2-7.802 9.101z m119.629 0h117.678c1.951 0 5.852-1.3 6.502-8.452-0.65-7.151-3.901-7.151-5.85-7.151h-48.764V605.62h34.46c1.95 0 5.2 0 5.85-7.15-0.65-5.203-3.25-7.153-6.5-7.153h-34.46V471.691h44.862c1.95 0 3.9 0 4.551-5.852-0.65-5.852-3.251-7.152-5.202-7.152h-94.923c-6.501 0.65-8.452 3.251-9.102 7.152 0.651 3.25 1.95 5.852 9.102 5.852h36.409v118.978h-37.709c-5.201 0.65-6.501 2.6-6.501 7.152 0 6.501 2.6 7.152 6.501 7.152h37.709v128.732h-54.613c-3.901 0-6.502 0.65-6.502 7.15 0 7.803 2.6 9.103 6.502 9.753z m-0.651-274.367V589.37c2.601-6.502 8.453-10.403 16.904-11.053h25.357v-93.623h-23.406c-9.102 0-15.604-2.6-18.854-8.452zM190.173 747.358c-10.403 0-18.205-5.202-22.106-15.604v-1.3c-1.301-6.502 1.3-16.255 16.905-22.106h1.3c15.603-3.25 24.055-6.502 28.607-8.453v-96.224h-16.255c-11.703 0-19.505-7.15-19.505-18.853 0-11.703 6.501-18.855 18.204-20.156h16.904v-82.57h-18.854c-11.704 0-19.505-7.151-19.505-18.854s6.501-18.854 18.205-20.155h87.771c5.85 0.65 14.954 4.551 16.904 19.505v0.65c1.301-8.452 7.801-13.653 18.205-14.954h0.65c11.702 0 19.504 5.851 20.804 16.904v1.302c-0.65 33.157-2.6 64.364-4.551 94.272-2.6 30.557-6.501 57.213-11.702 79.32l-0.651 1.3c-4.55 11.702-13.653 17.553-25.355 16.253h-0.65c-5.852-1.3-9.753-3.9-12.353-7.801-2.601-4.552-3.252-10.403-1.302-18.205 2.602-11.703 4.552-24.056 6.503-37.709-3.901 8.452-11.704 9.753-15.605 9.753h-18.853v74.768c1.301-0.651 2.6-1.95 3.9-2.601 7.153-3.9 9.753-5.201 10.404-5.852 9.751-7.801 20.155-7.15 28.607 1.302l0.65 1.299c6.5 9.752 5.2 20.156-3.901 27.957-25.356 20.155-59.165 35.76-101.425 46.812h-1.952z m-9.753-19.505c1.3 3.251 3.901 6.501 11.053 5.852 40.31-11.053 72.168-25.357 95.573-44.212 3.901-3.25 4.55-5.851 1.95-9.752-4.55-3.901-7.15-3.25-10.402-0.65-1.95 1.951-6.501 4.55-12.353 7.802-9.102 5.852-11.702 7.801-12.353 8.452l-11.053 11.053v-115.73h31.858c1.95 0 3.901 0 4.55-5.85-0.649-5.852-3.25-7.152-5.2-7.152h-31.208V469.09h39.01c1.95 0 3.901 0 4.55-5.852-0.65-5.851-3.25-7.152-5.2-7.152h-85.172c-5.2 0.651-6.5 2.6-6.5 7.152 0 3.901 0.65 5.851 6.5 5.851h31.859v107.926h-28.607c-5.201 0.651-6.502 2.601-6.502 7.152 0 3.901 0.651 5.852 6.502 5.852h29.257v117.028l-3.25 1.951c-6.502 3.901-18.206 7.802-35.76 11.703-8.452 2.6-9.102 5.852-9.102 7.152zM299.4 644.63c3.9 0.651 7.801-0.65 11.052-7.8 4.55-21.456 8.451-47.462 11.053-77.37 1.95-29.256 3.25-60.464 3.9-92.972-0.65-2.601-1.3-4.55-7.151-5.202-6.501 0.651-6.501 3.901-6.501 5.852-0.651 37.709-2.601 69.567-5.852 94.272-1.951 25.357-5.201 50.063-9.753 72.169-1.3 3.9-1.3 6.501-0.65 8.452 0.65 1.3 1.952 1.95 3.901 2.6z m-43.561-79.968h19.504c5.202 0.65 13.653 3.901 16.254 15.604l1.95-19.505c2.601-24.707 4.552-55.914 5.852-93.623v-1.95c-2.6 14.954-13.002 16.253-17.554 16.253H255.84v83.221z" p-id="32864" fill="#f4ea2a"></path></svg>
