<svg t="1705456722929" class="icon" viewBox="0 0 1024 1024" version="1.1" xmlns="http://www.w3.org/2000/svg" p-id="13761" width="200" height="200"><path d="M841.8 429.7h-487v-41.6c0-79.2 55.9-150.4 134.2-161.8 84.7-12.3 158.5 43.2 176.5 120.1 1.7 7.4 7.9 12.8 15.5 12.8h63.8c9.7 0 17.6-8.7 16-18.2-20.7-124.6-133-218.5-265.1-209.9-134.1 8.8-235 126.8-235 261.2v37.4h-77.4c-8.6 0-15.5 7-15.5 15.5V872c0 8.6 7 15.5 15.5 15.5h658.4c8.6 0 15.5-7 15.5-15.5V445.2c0.1-8.6-6.8-15.5-15.4-15.5zM544.1 680.6V746c0 8.7-7.1 15.8-15.8 15.8h-31.2c-8.7 0-15.8-7.1-15.8-15.8v-65.4c-16.1-10.3-26.8-28.3-26.8-48.8 0-32.1 26-58.1 58.1-58.1s58.1 26 58.1 58.1c0.2 20.5-10.5 38.5-26.6 48.8z" fill="#ffffff" p-id="13762"></path></svg>
