<svg t="1694568370756" class="icon" viewBox="0 0 1024 1024" version="1.1" xmlns="http://www.w3.org/2000/svg" p-id="13093" width="200" height="200"><path d="M62.3 452.1h51.4v545.7H62.3z" fill="#8FB3FF" p-id="13094"></path><path d="M1023.8 76.7l0.1-0.3-179.6-49.9L830.6 76l95.4 26.5-389.5 220.2-107.6-190.3-25.3-44.7L0.1 315.9l25.3 44.7 358.8-202.9 132.9 235 44.7-25.3 389.4-220.2-26.4 95.4 49.5 13.7 49.8-179.5z" fill="#FFD200" p-id="13095"></path><path d="M266.9 349.7h51.4v648h-51.4z" fill="#2868F0" p-id="13096"></path><path d="M471.5 520.3h51.4v477.4h-51.4z" fill="#8FB3FF" p-id="13097"></path><path d="M676.1 418h51.4v579.8h-51.4z" fill="#2868F0" p-id="13098"></path><path d="M880.1 486.2h51.4v511.5h-51.4z" fill="#8FB3FF" p-id="13099"></path></svg>
