<svg t="1703649022959" class="icon" viewBox="0 0 1024 1024" version="1.1" xmlns="http://www.w3.org/2000/svg" p-id="5305" width="200" height="200"><path d="M450.56 903.168c0 18.432 10.24 28.672 28.672 28.672 155.648 0 282.624-126.976 282.624-282.624 0-14.336-10.24-28.672-28.672-28.672s-28.672 10.24-28.672 28.672c0 122.88-102.4 225.28-225.28 225.28-14.336 2.048-28.672 14.336-28.672 28.672z" fill="#007AFF" p-id="5306"></path><path d="M104.448 649.216c0 208.896 169.984 374.784 374.784 374.784 208.896 0 374.784-169.984 374.784-374.784 0-145.408-106.496-325.632-169.984-419.84C602.112 106.496 507.904 0 479.232 0s-122.88 106.496-204.8 229.376c-63.488 96.256-169.984 276.48-169.984 419.84z m57.344-14.336c0-215.04 288.768-567.296 317.44-575.488 24.576 8.192 317.44 360.448 317.44 575.488 0 184.32-141.312 331.776-317.44 331.776s-317.44-143.36-317.44-331.776z" fill="#55ebfd" p-id="5307"></path></svg>
