<svg t="1694592666683" class="icon" viewBox="0 0 1256 1024" version="1.1" xmlns="http://www.w3.org/2000/svg" p-id="30123" width="200" height="200"><path d="M402.15387 887.880341c0-76.110762-58.673621-135.334203-134.077472-135.334203-75.403851 0-133.998926 59.223441-133.998926 135.334203 0 76.189307 58.595076 135.334203 133.998926 135.334202s134.077472-67.627828 134.077472-135.334202z m670.230267 0c0-76.110762-58.595076-135.334203-133.998926-135.334203s-134.077472 59.223441-134.077471 135.334203c0 76.189307 58.673621 135.334203 134.077471 135.334202 75.403851 0 133.998926-67.627828 133.998926-135.334202z m0-685.153947C1089.192912 84.358058 980.250058 67.392191 980.250058 67.392191c-25.134617-16.887321-175.942318 0-175.942318 0-100.538467-143.73859-175.942318 0-175.942319 0H494.28795C410.558257 25.134617 452.423103 160.46882 452.423103 160.46882H360.289024c-67.078009-42.33612-134.077472 42.257575-134.077472 42.257574-16.730229-76.110762-41.864846 0-41.864846 0-125.673084-16.887321-175.942318 93.076628-175.942318 93.076628h1206.461609c16.730229-143.817136-142.481859-93.076628-142.48186-93.076628z" fill="#1890FF" p-id="30124"></path><path d="M117.268697 794.882258A179.319782 179.319782 0 0 1 276.480785 701.80563c100.538467 0 175.942318 84.593695 175.942318 177.670323h310.01979a177.827414 177.827414 0 0 1 175.942318-177.670323c66.999463 0 117.268697 33.774641 150.807701 84.593695l75.403851-448.338728H0l117.268697 456.821661z m360.289023-33.853187l-41.864846-42.33612L628.365421 524.213853l100.538468 101.481015 192.672547-169.187389-41.864846-42.257575 125.673084 8.404388v126.929815l-41.864846-42.336121L728.903889 701.80563 628.365421 600.324615 477.55772 761.029071z" fill="#1890FF" p-id="30125"></path></svg>
