<?xml version="1.0" standalone="no"?><!DOCTYPE svg PUBLIC "-//W3C//DTD SVG 1.1//EN" "http://www.w3.org/Graphics/SVG/1.1/DTD/svg11.dtd"><svg t="1710406526102" class="icon" viewBox="0 0 1024 1024" version="1.1" xmlns="http://www.w3.org/2000/svg" p-id="1907" xmlns:xlink="http://www.w3.org/1999/xlink" width="200" height="200"><path d="M510.414861 41.213622c-208.354939 0-377.263158 169.284425-377.263158 378.104339C133.151703 628.146328 510.414861 1001.80805 510.414861 1001.80805S887.678019 628.146328 887.678019 419.317961c0-208.819913-168.908219-378.104338-377.263158-378.104339z m0 621.374613C375.593478 662.588235 266.303406 553.298163 266.303406 418.47678s109.290072-244.111455 244.111455-244.111455S754.526316 283.655397 754.526316 418.47678s-109.290072 244.111455-244.111455 244.111455z" fill="#ffffff" p-id="1908"></path><path d="M608.761131 420.252136s2.69685 33.816305-32.336842 43.284871c32.336842-90.623472 16.168421-156.907657 16.168421-156.907657s-24.250518-73.04322-80.842105-97.39096c39.074741 108.216405-121.265271 163.670918-129.347369 243.477399-37.726316 91.984578 64.673684 156.907657 64.673685 156.907658s-36.377891-114.975439 64.673684-162.314039c-9.430522 62.222002 2.69685 94.681428 26.947368 151.497048 24.250518-22.990861 25.60317-21.642436 32.336842-43.284871 13.475798 25.700392 10.778947 59.516698 10.778948 59.516698s45.81264-39.222687 59.28421-97.39096c13.475798-58.168272-32.336842-97.395187-32.336842-97.395187z" fill="#ffffff" p-id="1909"></path></svg>