<?xml version="1.0" standalone="no"?><!DOCTYPE svg PUBLIC "-//W3C//DTD SVG 1.1//EN" "http://www.w3.org/Graphics/SVG/1.1/DTD/svg11.dtd"><svg t="1710406542799" class="icon" viewBox="0 0 1024 1024" version="1.1" xmlns="http://www.w3.org/2000/svg" p-id="2309" xmlns:xlink="http://www.w3.org/1999/xlink" width="200" height="200"><path d="M510.414861 41.213622c-208.354939 0-377.263158 169.284425-377.263158 378.104339C133.151703 628.146328 510.414861 1001.80805 510.414861 1001.80805S887.678019 628.146328 887.678019 419.317961c0-208.819913-168.908219-378.104338-377.263158-378.104339z m0 621.374613C375.593478 662.588235 266.303406 553.298163 266.303406 418.47678s109.290072-244.111455 244.111455-244.111455S754.526316 283.655397 754.526316 418.47678s-109.290072 244.111455-244.111455 244.111455z" fill="#ffffff" p-id="2310"></path><path d="M567.479876 320.198142h-15.851393v25.36223h15.851393v-25.36223z m-31.702786 269.473685h12.681114v-41.213623h-12.681114v41.213623z m-31.702787 0h12.681115v-41.213623h-12.681115v41.213623z m-31.702786 0h12.681115v-41.213623h-12.681115v41.213623z m63.405573-269.473685H519.925697v25.36223h15.851393v-25.36223z m49.139319 41.213623h-145.832818a4.755418 4.755418 0 1 0 0 9.510836h145.832818a4.755418 4.755418 0 0 0 0-9.510836zM605.52322 278.98452H418.47678a15.851393 15.851393 0 0 0-15.851393 15.851393v231.430341a15.851393 15.851393 0 0 0 15.851393 15.851393h187.04644a15.851393 15.851393 0 0 0 15.851393-15.851393V294.835913a15.851393 15.851393 0 0 0-15.851393-15.851393zM507.244582 497.733746l6.340557-41.213622-22.19195 9.510836 19.021672-47.55418-3.170279 28.532508 25.362229-6.340557-25.362229 57.065015zM602.352941 380.433437a15.851393 15.851393 0 0 1-15.851393 15.851393H437.498452A15.851393 15.851393 0 0 1 421.647059 380.433437V320.198142A15.851393 15.851393 0 0 1 437.498452 304.346749h149.003096a15.851393 15.851393 0 0 1 15.851393 15.851393V380.433437z m-98.278638-60.235295h-15.851393v25.36223h15.851393v-25.36223z m-31.702786 0H456.520124v25.36223h15.851393v-25.36223z" fill="#ffffff" p-id="2311"></path></svg>